<?xml version="1.0" encoding="utf-8"?>
<!-- Generator: Adobe Illustrator 18.0.0, SVG Export Plug-In . SVG Version: 6.00 Build 0)  -->
<!DOCTYPE svg PUBLIC "-//W3C//DTD SVG 1.1//EN" "http://www.w3.org/Graphics/SVG/1.1/DTD/svg11.dtd">
<svg version="1.1" id="Layer_1" xmlns="http://www.w3.org/2000/svg" xmlns:xlink="http://www.w3.org/1999/xlink" x="0px" y="0px"
	 viewBox="0 0 595.3 595.3" enable-background="new 0 0 595.3 595.3" xml:space="preserve">
<g>
	<g>
		<path fill="#0000FF" d="M204.2,337.8l-7.6-23.1h-31.5l-8.3,23.1h-12.1l30.1-80.2h13.2l29,80.2H204.2z M181,270.3l-12.5,34.9h24.5
			L181,270.3z"/>
		<path fill="#0000FF" d="M270.3,257.5c18.4,0,26.4,8.4,26.4,21.7c0,15.7-13,24.5-27.3,24.5h-3.6l32.3,34h-14.9l-31.7-34h-7.2v34
			h-11.6v-80.2H270.3z M268.7,294c11.2,0,16.1-4,16.1-13.5c0-9.1-5.3-13.1-14.9-13.1h-25.5V294H268.7z"/>
		<path fill="#0000FF" d="M353.8,257.5c14.4,0,24.2,7.9,24.2,23.3c0,14.2-8.6,23.7-24.4,23.7h-24.1v33.2h-11.8v-80.2H353.8z
			 M350.3,294.7c11,0,15.9-4.7,15.9-13.8c0-9.1-4.8-13.5-15.9-13.5h-20.8v27.3H350.3z"/>
		<path fill="#0000FF" d="M437.6,337.8l-7.6-23.1h-31.5l-8.3,23.1h-12.1l30.1-80.2h13.2l29,80.2H437.6z M414.3,270.3l-12.5,34.9
			h24.5L414.3,270.3z"/>
	</g>
</g>
</svg>
