<?xml version="1.0" encoding="utf-8"?>
<!-- Generator: Adobe Illustrator 18.0.0, SVG Export Plug-In . SVG Version: 6.00 Build 0)  -->
<!DOCTYPE svg PUBLIC "-//W3C//DTD SVG 1.1//EN" "http://www.w3.org/Graphics/SVG/1.1/DTD/svg11.dtd">
<svg version="1.1" id="Layer_1" xmlns="http://www.w3.org/2000/svg" xmlns:xlink="http://www.w3.org/1999/xlink" x="0px" y="0px"
	 viewBox="0 0 595.3 419.5" enable-background="new 0 0 595.3 419.5" xml:space="preserve">
<g>
	<path fill="#FFFFFF" d="M389.5,215.7c0-8.5-1-11.2-3.4-14c-2.3-2.5-5.7-3.8-9.8-3.8c-6.6,0-10.7,3-12.8,6.7v-5.7h-6.8v39h6.8v-22.6
		c0-6.1,3.8-11.4,10.3-11.4c5.7,0,8.9,2.7,8.9,11.2V238h6.8V215.7z M315.6,218.5c0-9.3,4.6-14.9,11.6-14.9s11.6,5.5,11.6,14.9
		c0,9.3-4.8,14.8-11.6,14.8S315.6,227.9,315.6,218.5 M308.6,218.6c0,12.5,7.5,20.3,18.6,20.3s18.6-7.9,18.6-20.3
		c0-12.5-7.6-20.6-18.6-20.6S308.6,206.1,308.6,218.6 M269.6,218.5c0-9.3,4.6-14.9,11.6-14.9s11.6,5.5,11.6,14.9
		c0,9.3-4.8,14.8-11.6,14.8S269.6,227.9,269.6,218.5 M262.7,218.6c0,12.5,7.5,20.3,18.6,20.3s18.6-7.9,18.6-20.3
		c0-12.5-7.6-20.6-18.6-20.6S262.7,206.1,262.7,218.6 M212.8,180.6h-6.6V238h7.2v-37.9c0-3.5-0.2-7.1-0.2-7.1h0.1
		c0.3,0.7,3,4.7,4.6,7l26.5,38h6.6v-57.4h-7.2v36.2c0,4.2,0.2,8.5,0.2,8.5h-0.1c-0.3-0.7-2.5-4.1-4.4-6.7L212.8,180.6z"/>
</g>
</svg>
