<?xml version="1.0" standalone="no"?>
<!DOCTYPE svg PUBLIC "-//W3C//DTD SVG 1.1//EN" "http://www.w3.org/Graphics/SVG/1.1/DTD/svg11.dtd" >
<svg xmlns="http://www.w3.org/2000/svg" xmlns:xlink="http://www.w3.org/1999/xlink" version="1.1">
<metadata></metadata>
<defs>
<font id="arpa_schulbuchbold" horiz-adv-x="1138" >
<font-face units-per-em="2048" ascent="1638" descent="-410" />
<missing-glyph horiz-adv-x="540" />
<glyph horiz-adv-x="0" />
<glyph horiz-adv-x="682" />
<glyph unicode=" "  horiz-adv-x="540" />
<glyph unicode="&#x09;" horiz-adv-x="540" />
<glyph unicode="&#xa0;" horiz-adv-x="540" />
<glyph unicode="!" horiz-adv-x="692" d="M223 1106v362h326v-362l-86 -692h-154zM231 0v297h310v-297h-310z" />
<glyph unicode="&#x22;" horiz-adv-x="995" d="M16 1475h285l-51 -613h-187zM399 1475h283l-47 -613h-186z" />
<glyph unicode="#" d="M0 395l47 172h199l80 289h-203l47 172h201l108 399h203l-107 -399h160l105 399h204l-106 -399h199l-47 -172h-197l-78 -289h199l-47 -172h-199l-109 -395h-202l104 395h-158l-106 -395h-205l109 395h-201zM453 567h155l80 289h-160z" />
<glyph unicode="$" d="M59 440h279q13 -106 24 -137q23 -66 98 -94q26 -9 60 -16v413q-234 61 -331 158t-97 266q0 83 23 154t72 130t134 96t199 44v133h96v-135q87 -5 162 -32.5t135.5 -78t96.5 -132t39 -187.5h-271q-1 5 -2 26t-3.5 34.5t-8 36t-16.5 38t-27.5 32t-43 26.5t-61.5 14v-371 q21 -8 74 -26.5t80 -28.5t74.5 -32t73.5 -41.5t60 -52.5t51.5 -69t30.5 -86.5t13 -109.5q0 -113 -36 -197.5t-101 -135.5t-143 -79t-175 -37v-201h-98v199q-92 11 -160.5 30t-127.5 54.5t-96 87.5t-57.5 128.5t-19.5 178.5zM358 1065q0 -40 12.5 -70.5t39 -51t49.5 -32.5 t61 -26v340q-44 -1 -76.5 -14t-48.5 -29t-25 -40.5t-10.5 -40t-1.5 -36.5zM616 195q69 9 96 24q73 41 74 166v5q0 17 -1 28.5t-9.5 34t-25 40.5t-51 39.5t-83.5 38.5v-376z" />
<glyph unicode="%" horiz-adv-x="1820" d="M78 1081q0 145 101.5 247t246.5 102t246.5 -102t101.5 -247t-101.5 -246.5t-246.5 -101.5t-246.5 101.5t-101.5 246.5zM272 1081q0 -63 45.5 -108t108.5 -45t108.5 45t45.5 108t-45.5 108.5t-108.5 45.5t-108.5 -45.5t-45.5 -108.5zM399 -39l801 1464h211l-801 -1464 h-211zM1055 348q0 145 101.5 246.5t246.5 101.5t246.5 -101.5t101.5 -246.5t-101.5 -246.5t-246.5 -101.5t-246.5 101.5t-101.5 246.5zM1249 348q0 -63 45.5 -108t108.5 -45t108 45t45 108t-45 108.5t-108 45.5t-108.5 -45.5t-45.5 -108.5z" />
<glyph unicode="&#x26;" horiz-adv-x="1488" d="M113 391q0 142 69 233t242 199l-1 -1q-50 53 -89 135q-41 87 -41 167q0 87 31 154t85.5 108t124 61.5t150.5 20.5q46 0 92 -8.5t96.5 -32t88.5 -59t63.5 -95t26.5 -134.5q2 -113 -50.5 -197t-189.5 -164l203 -252q75 110 78 244h260q-3 -48 -8.5 -82.5t-21.5 -97 t-52.5 -131t-91.5 -137.5l270 -322h-358l-99 121q-1 -1 -27.5 -25t-36.5 -31t-39.5 -28t-54 -30t-62 -21.5t-82 -17.5t-95.5 -5q-115 0 -209 39t-152 101.5t-89 137t-31 150.5zM408 399q0 -18 4.5 -39t18 -48.5t35 -49t59.5 -36.5t87 -15q68 0 129.5 32t98.5 66l-262 326 q-78 -46 -124 -100.5t-46 -135.5zM563 1135q0 -33 18 -64.5t83 -114.5q26 18 35 24t33 27t34.5 36.5t20.5 41t10 52.5q0 10 -1.5 20.5t-8 28.5t-18 30.5t-35 22.5t-54.5 10q-54 0 -85.5 -31.5t-31.5 -82.5z" />
<glyph unicode="'" horiz-adv-x="497" d="M92 1475h285l-53 -613h-179z" />
<glyph unicode="(" horiz-adv-x="681" d="M88 526q0 488 356 971l168 -2q-103 -187 -156 -313.5t-82.5 -281.5t-29.5 -355q0 -109 10 -205.5t37 -215t81.5 -253.5t135.5 -285h-172q-348 473 -348 940z" />
<glyph unicode=")" horiz-adv-x="681" d="M14 -414q50 90 76.5 139.5t71 152t67.5 189t41.5 213t18.5 261.5q0 152 -19.5 285.5t-60 252.5t-81.5 209.5t-105 208.5h225q348 -476 348 -940q0 -489 -360 -971h-222z" />
<glyph unicode="*" horiz-adv-x="796" d="M45 1157l47 152l209 -68v244h176v-244l209 68l47 -152l-213 -65l142 -201l-132 -94l-139 188l-145 -188l-129 94l139 201z" />
<glyph unicode="+" horiz-adv-x="1196" d="M72 410v270h407v407h271v-407h407v-270h-407v-410h-271v410h-407z" />
<glyph unicode="," horiz-adv-x="569" d="M113 0v307h317v-264q0 -86 -28 -161.5t-73 -125.5t-101.5 -78.5t-114.5 -27.5v110q38 11 63 24t53 38.5t44 70t20 107.5h-180z" />
<glyph unicode="-" horiz-adv-x="681" d="M43 432v279h582v-279h-582z" />
<glyph unicode="." horiz-adv-x="569" d="M125 0v307h309v-307h-309z" />
<glyph unicode="/" horiz-adv-x="569" d="M-123 0l582 1526h246l-584 -1526h-244z" />
<glyph unicode="0" d="M63 713q0 80 1.5 132t11.5 138.5t28.5 144.5t55.5 127t88.5 110t132 69t182.5 28q142 0 240.5 -49t156 -148.5t82.5 -233.5t25 -320q0 -182 -25.5 -315.5t-83 -233t-155.5 -149.5t-238 -50q-113 0 -198.5 33t-143 94t-93.5 155t-51.5 208t-15.5 260zM365 713 q0 -204 15 -292q37 -218 185 -218q50 0 84 20t61 73.5t39.5 155.5t12.5 259q0 136 -10 231t-25.5 149t-42.5 83.5t-54 38t-67 8.5q-75 0 -116.5 -43t-61.5 -153t-20 -312z" />
<glyph unicode="1" d="M135 997v201q59 2 96 5t81 10t70.5 18t54.5 29t45 44t31 63t22 85h243v-1452h-299v997h-344z" />
<glyph unicode="2" d="M63 0q0 74 14 138t50.5 139t110.5 154.5t184 162.5l98 74q3 2 26 19t32.5 25t33 27.5t36 33t32.5 35.5t31 42.5t23 45t17 51t5 54.5q0 26 -4.5 52t-17.5 55t-33.5 51t-56 36.5t-81.5 14.5q-26 0 -44.5 -2.5t-42.5 -10.5t-40.5 -26t-32 -46.5t-25.5 -75t-13 -107.5h-287 q8 250 125.5 383t347.5 133q74 0 143 -14.5t136 -49t116 -87t79 -134.5t30 -184q0 -81 -23.5 -152t-69.5 -129t-92 -100t-112 -90l-111 -80q-12 -9 -39.5 -29t-38 -28t-31.5 -23.5t-31 -25t-24.5 -22.5t-24 -25t-18.5 -25h619v-260h-996z" />
<glyph unicode="3" d="M53 444h291q-1 -43 6.5 -80t27.5 -76t64 -62t109 -23q21 0 43 4t51 18.5t51.5 37t38 64t15.5 95.5q0 109 -67 160.5t-239 52.5h-8v209h17q148 3 206 47.5t58 146.5q0 31 -7.5 59.5t-25.5 58t-55.5 47.5t-89.5 18q-85 0 -138 -56t-47 -174h-274q2 75 15 138t46 125.5 t84.5 106t134.5 70.5t191 27q90 0 170.5 -23t147 -69t106 -124.5t39.5 -180.5q0 -98 -49 -177.5t-127 -111.5q106 -38 162.5 -128.5t56.5 -217.5q0 -61 -13.5 -121t-49.5 -123t-91 -110.5t-145 -78t-203 -30.5q-77 0 -140 10.5t-129.5 42t-113 83t-79.5 139.5t-40 206z" />
<glyph unicode="4" d="M53 307v258l522 877h336v-905h160v-230h-160v-307h-288v307h-570zM268 537h357v624z" />
<glyph unicode="5" d="M51 389h295q6 -29 11 -48t19.5 -48.5t34 -47t53.5 -31t79 -13.5q90 0 148.5 62t58.5 194q0 47 -8.5 88.5t-29 82.5t-63 65t-102.5 24q-132 0 -185 -101l-266 15l103 803h802v-248h-589l-52 -309q8 5 29.5 17.5t28 15.5t24.5 12.5t27 12t26.5 8t33 7t36.5 3t45 1.5 q67 0 130 -16.5t121 -53.5t101 -90.5t69 -134.5t26 -180q0 -68 -14.5 -135.5t-52 -138t-93.5 -123.5t-147 -87t-205 -34q-210 0 -342.5 114t-151.5 314z" />
<glyph unicode="6" d="M61 655q0 144 15 261.5t52 221.5t94.5 175t147 112t205.5 41q197 0 320.5 -102t138.5 -277h-293q2 6 -0.5 20.5t-12 35.5t-25.5 39.5t-47 31.5t-72 13q-112 0 -163 -94t-71 -306q46 49 100.5 76.5t92 33t86.5 5.5q85 0 162.5 -29.5t139.5 -85t99 -146.5t37 -204 q0 -41 -4.5 -82.5t-18.5 -94t-36 -98.5t-61 -91t-89.5 -77.5t-124.5 -52.5t-164 -20q-109 0 -200 41t-160.5 123t-108.5 217t-39 313zM356 461q0 -43 10.5 -85t33.5 -83t67 -66.5t104 -25.5q26 0 50 5.5t51.5 22t47 43t33 73t13.5 106.5q0 47 -9.5 89.5t-31 82t-64 63 t-100.5 23.5q-88 0 -146.5 -63.5t-58.5 -184.5z" />
<glyph unicode="7" d="M49 1169l4 265h1026v-230q-231 -245 -378 -582.5t-140 -621.5h-307q5 198 83.5 433t193 428.5t233.5 307.5h-715z" />
<glyph unicode="8" d="M51 401q0 48 8.5 93.5t30 98.5t67.5 100t111 79q-80 55 -123 127.5t-43 177.5q0 74 28.5 141t83 121.5t144 86.5t201.5 32q71 0 137 -14t124.5 -44t102 -74t68.5 -108.5t25 -142.5q0 -30 -6 -62t-21.5 -75.5t-51.5 -84.5t-89 -69q215 -124 215 -385q0 -83 -32 -159.5 t-93.5 -139.5t-163 -101t-229.5 -38q-222 0 -358 117t-136 323zM358 424q0 -40 8 -74t27.5 -69t62 -55.5t103.5 -20.5q35 0 67.5 9.5t64 32t50.5 68t19 109.5q0 114 -56 167.5t-145 53.5q-27 0 -48.5 -3t-52 -15.5t-50.5 -35t-35 -65.5t-15 -102zM383 1044q0 -31 8 -59.5 t26 -56t54.5 -44t87.5 -16.5q72 0 124 40.5t52 133.5q0 34 -8 63.5t-26.5 57.5t-55 44t-86.5 16q-31 0 -57 -6.5t-55.5 -23.5t-46.5 -55t-17 -94z" />
<glyph unicode="9" d="M59 940q0 147 56 264.5t168 188.5t262 71q92 0 168 -22t130 -59t94.5 -92.5t65.5 -117t40.5 -138.5t21.5 -150t6 -158q0 -78 -5.5 -148t-20.5 -150t-39.5 -146t-66 -128t-96.5 -104.5t-133.5 -68t-174.5 -25.5q-178 0 -301 101t-144 276h295q10 -67 55.5 -100t108.5 -33 t107 28.5t68 84t35.5 121.5t14.5 157q-19 -22 -24.5 -28t-33.5 -28t-52.5 -31.5t-68.5 -19.5t-95 -10q-53 0 -107.5 12t-116 44.5t-108.5 82.5t-78 134.5t-31 191.5zM358 969q0 -37 2.5 -64.5t14 -66t32 -63t61.5 -42.5t97 -18q33 0 65 10.5t64.5 35t52 75t19.5 120.5 q0 121 -55.5 193t-151.5 72q-38 0 -71 -11.5t-63.5 -38t-48.5 -78t-18 -124.5z" />
<glyph unicode=":" horiz-adv-x="692" d="M231 0v307h314v-307h-314zM231 741v303h314v-303h-314z" />
<glyph unicode=";" horiz-adv-x="692" d="M231 0v307h320v-264q0 -86 -28 -161.5t-73 -125.5t-102.5 -78.5t-116.5 -27.5v110q40 12 63 23t51 36t44.5 69.5t22.5 111.5h-181zM231 741v303h314v-303h-314z" />
<glyph unicode="&#x3c;" horiz-adv-x="1196" d="M23 412v264l1177 448v-288l-827 -291l827 -293v-289z" />
<glyph unicode="=" horiz-adv-x="1196" d="M72 172v272h1085v-272h-1085zM72 641v274h1085v-274h-1085z" />
<glyph unicode="&#x3e;" horiz-adv-x="1196" d="M23 -37v289l829 293l-829 291v288l1177 -450v-262z" />
<glyph unicode="?" horiz-adv-x="1261" d="M119 1010q5 104 35 189t88 151t152 102.5t218 36.5q75 0 145.5 -12t142.5 -42.5t125 -77.5t86.5 -124t33.5 -174q0 -105 -46.5 -187t-168.5 -174l-68 -51q-42 -31 -65 -78t-23 -137h-278q4 124 15.5 181t42.5 99.5t105 96.5l72 53q98 76 98 178q0 86 -49.5 141.5 t-152.5 55.5q-95 0 -152 -63.5t-55 -163.5h-301zM487 0v297h310v-297h-310z" />
<glyph unicode="@" horiz-adv-x="1988" d="M197 727q0 224 115.5 407.5t314.5 286.5t440 103q83 0 166 -14.5t167 -44.5t156.5 -81t128.5 -118t88.5 -162.5t32.5 -208.5q0 -105 -35.5 -205.5t-95.5 -177t-145 -123.5t-178 -47q-83 0 -138 46t-55 114q0 24 2 30q-99 -190 -287 -190q-118 0 -199 86.5t-81 247.5 q0 59 17 125.5t52.5 132.5t84.5 118.5t119.5 85.5t150.5 33q36 0 64.5 -5.5t61 -20.5t56.5 -47.5t37 -81.5l37 121h192l-127 -435q-2 -6 -9 -29.5t-10 -34t-6 -27.5t-3 -31q0 -82 84 -82q25 0 56 12.5t67 43.5t65 76t48.5 117.5t19.5 159.5q0 104 -36 187t-93.5 134t-134 85 t-151 47.5t-151.5 13.5q-108 0 -212 -25t-198.5 -78.5t-166 -129t-114 -184t-42.5 -236.5q0 -117 38.5 -218t104.5 -173t154 -123t188 -76t205 -25q107 0 173 13q190 36 391 180l73 -115q-299 -225 -651 -225q-183 0 -329.5 49.5t-238 127.5t-153 182t-86 205t-24.5 204z M815 653q0 -66 30 -112.5t95 -46.5q59 0 116.5 68.5t91.5 165t34 181.5q0 18 -4.5 36.5t-16 39t-36 33t-58.5 12.5q-70 0 -130.5 -65.5t-91 -151t-30.5 -160.5z" />
<glyph unicode="A" horiz-adv-x="1488" d="M53 0l525 1475h360l520 -1475h-344l-90 289h-541l-94 -289h-336zM569 553h367l-180 571z" />
<glyph unicode="B" horiz-adv-x="1488" d="M164 0v1475h674q503 0 503 -385q0 -101 -37.5 -172t-140.5 -127q101 -35 162 -123.5t61 -221.5q0 -69 -14.5 -129.5t-53.5 -120t-99 -102t-158 -68.5t-225 -26h-672zM465 264h356q126 0 185 47.5t59 157.5q0 176 -236 176h-364v-381zM465 897h362q109 0 159 39t50 121 q0 80 -55.5 116.5t-196.5 36.5h-319v-313z" />
<glyph unicode="C" horiz-adv-x="1478" d="M92 723q0 156 34 284.5t95.5 219.5t148 153t190 91.5t222.5 29.5q152 0 273 -45t194.5 -120.5t113 -166.5t42.5 -190h-318q-23 122 -98.5 186t-220.5 64q-156 0 -252 -128t-96 -380q0 -128 28.5 -224.5t78 -153t110.5 -83.5t133 -27q126 0 209 68.5t106 196.5h316 q-5 -69 -28 -139.5t-72 -143.5t-117.5 -129t-174 -91.5t-233.5 -35.5q-146 0 -268.5 46.5t-216 138t-146.5 240t-53 339.5z" />
<glyph unicode="D" horiz-adv-x="1478" d="M154 0v1475h612q145 0 260.5 -41.5t201 -125t131.5 -219t46 -315.5q0 -363 -162.5 -568.5t-447.5 -205.5h-641zM463 264h278q159 0 249.5 123t90.5 367q0 131 -19.5 219t-62.5 140.5t-105 74.5t-153 22h-278v-946z" />
<glyph unicode="E" horiz-adv-x="1366" d="M166 0v1475h1079v-271h-768v-299h705v-264h-705v-369h807v-272h-1118z" />
<glyph unicode="F" horiz-adv-x="1251" d="M154 0v1473h1046v-269h-729v-327h641v-263h-641v-614h-317z" />
<glyph unicode="G" horiz-adv-x="1593" d="M84 725q0 173 49 316.5t141.5 248.5t234 163t318.5 58q170 0 310.5 -68t222 -181.5t94.5 -249.5h-315q-12 104 -104.5 170.5t-225.5 66.5q-180 0 -289.5 -136t-109.5 -394q0 -241 110 -365.5t289 -124.5q148 0 246 80.5t119 227.5h-328v254h610q0 -228 -43.5 -388 t-133 -257.5t-216.5 -141t-303 -43.5q-143 0 -266.5 53.5t-214.5 150.5t-143 241.5t-52 318.5z" />
<glyph unicode="H" horiz-adv-x="1478" d="M154 0v1475h315v-560h555v560h319v-1475h-319v655h-555v-655h-315z" />
<glyph unicode="I" horiz-adv-x="565" d="M127 0v1475h317v-1475h-317z" />
<glyph unicode="J" horiz-adv-x="1146" d="M45 543v26h301v-26q0 -130 18.5 -199t54.5 -94t103 -25q53 0 85.5 16t52.5 64.5t20 134.5v1037h317v-1024q0 -241 -111 -364.5t-349 -123.5q-173 0 -279 54t-159.5 181.5t-53.5 342.5z" />
<glyph unicode="K" horiz-adv-x="1488" d="M162 0v1475h315v-668l551 668h412l-602 -680l635 -795h-410l-586 743v-743h-315z" />
<glyph unicode="L" horiz-adv-x="1261" d="M156 0v1475h319v-1203h729v-272h-1048z" />
<glyph unicode="M" horiz-adv-x="1705" d="M152 0v1475h321l393 -646l412 646h301v-1475h-299v1006l-330 -500h-182l-319 500v-1006h-297z" />
<glyph unicode="N" horiz-adv-x="1478" d="M152 0v1475h329l574 -1014v1014h295v-1475h-316l-585 1032v-1032h-297z" />
<glyph unicode="O" horiz-adv-x="1593" d="M102 741q0 188 52 336.5t146.5 245.5t224 148t286.5 51q154 0 282 -49.5t222 -145.5t146 -247t52 -343q0 -370 -189 -574t-513 -204q-329 0 -519 205.5t-190 576.5zM420 741q0 -130 30.5 -230.5t84.5 -161.5t123 -91.5t151 -30.5q171 0 279 131.5t108 378.5 q0 128 -30 227.5t-83.5 161t-123 92.5t-150.5 31q-175 0 -282 -129.5t-107 -378.5z" />
<glyph unicode="P" horiz-adv-x="1366" d="M162 0v1475h641q240 0 364.5 -122t124.5 -349q0 -245 -124 -363.5t-392 -118.5h-297v-522h-317zM479 784h275q106 0 164.5 53t58.5 164q0 209 -223 209h-275v-426z" />
<glyph unicode="Q" horiz-adv-x="1593" d="M102 741q0 229 82.5 404.5t245 276t383.5 100.5q209 0 369 -98.5t245.5 -271t85.5 -390.5q0 -180 -41.5 -318t-113.5 -219l166 -157l-168 -172l-174 165q-86 -53 -166.5 -77.5t-208.5 -24.5q-322 0 -513.5 210.5t-191.5 571.5zM420 741q0 -249 105 -381.5t280 -132.5 q101 0 168 39l-150 144l164 170l146 -142q22 49 32.5 78.5t20 87t10.5 133.5v14q0 232 -94 363q-98 135 -293 135q-182 0 -285.5 -130.5t-103.5 -377.5z" />
<glyph unicode="R" horiz-adv-x="1478" d="M162 0v1475h727q120 0 213.5 -32t151.5 -89.5t88 -133.5t30 -167q0 -106 -37 -193.5t-101 -146.5t-146.5 -95t-178.5 -47l488 -571h-406l-436 571h-82v-571h-311zM473 823h338q242 0 242 185q0 108 -54.5 155t-181.5 47h-344v-387z" />
<glyph unicode="S" horiz-adv-x="1366" d="M84 453h305q14 -121 85.5 -176.5t215.5 -55.5q299 0 299 189q0 29 -7 48.5t-32 43t-80 44t-143 40.5l-233 53q-197 44 -293.5 142t-96.5 276q0 204 148.5 333.5t423.5 129.5q244 0 403 -133.5t168 -352.5h-305q-6 107 -82 164t-207 57q-118 0 -186 -49.5t-68 -126.5 q0 -46 19.5 -75t74 -53.5t158.5 -47.5l260 -59q86 -20 152.5 -50t120.5 -77.5t83 -119.5t29 -165q0 -94 -37 -177t-107.5 -149.5t-186 -105.5t-260.5 -39q-187 0 -325 54t-217 166t-79 272z" />
<glyph unicode="T" horiz-adv-x="1251" d="M33 1204v271h1194v-271h-434v-1204h-324v1204h-436z" />
<glyph unicode="U" horiz-adv-x="1478" d="M154 563v912h325v-908q0 -186 66 -262t207 -76q147 0 206.5 79.5t59.5 258.5v908h325v-912q0 -305 -141.5 -453.5t-451.5 -148.5q-298 0 -447 141t-149 461z" />
<glyph unicode="V" horiz-adv-x="1366" d="M47 1475h340l309 -1106l316 1106h327l-499 -1475h-299z" />
<glyph unicode="W" horiz-adv-x="1933" d="M31 1475h336l194 -834l39 -233l41 227l156 840h338l163 -830l43 -237l45 225l193 842h324l-416 -1475h-305l-168 846l-49 295l-54 -295l-168 -846h-292z" />
<glyph unicode="X" horiz-adv-x="1366" d="M31 0l471 752l-449 723h381l250 -471l260 471h369l-447 -709l477 -766h-389l-268 492l-285 -492h-370z" />
<glyph unicode="Y" horiz-adv-x="1366" d="M35 1475h375l295 -637l280 637h361l-486 -924v-551h-321v551z" />
<glyph unicode="Z" horiz-adv-x="1251" d="M51 0v270l748 934h-731v271h1128v-254l-758 -953h760v-268h-1147z" />
<glyph unicode="[" horiz-adv-x="692" d="M129 -391v1882h514v-217h-235v-1452h235v-213h-514z" />
<glyph unicode="\" horiz-adv-x="569" d="M-117 1526h244l573 -1526h-245z" />
<glyph unicode="]" horiz-adv-x="692" d="M47 -178h234v1458h-234v211h514v-1882h-514v213z" />
<glyph unicode="^" horiz-adv-x="1218" d="M141 588l371 887h229l371 -887h-260l-225 557l-226 -557h-260z" />
<glyph unicode="_" d="M0 -156h1139v-100h-1139v100z" />
<glyph unicode="`" horiz-adv-x="681" d="M-49 1540h325l193 -301h-211z" />
<glyph unicode="a" horiz-adv-x="1261" d="M63 516q0 285 129.5 443.5t344.5 158.5q103 0 184 -49.5t125 -140.5v162h291v-1090h-289v152q-54 -90 -132.5 -138.5t-199.5 -48.5q-89 0 -170.5 38t-144.5 107t-100.5 174.5t-37.5 231.5zM367 541q0 -168 64 -247t171 -79q106 0 174 77.5t68 235.5t-64 245t-178 87 q-109 0 -172 -81.5t-63 -237.5z" />
<glyph unicode="b" horiz-adv-x="1261" d="M123 0v1473h297v-525q114 168 313 168q204 0 331.5 -149.5t127.5 -407.5q0 -144 -35.5 -258t-98 -185t-144 -108t-177.5 -37q-112 0 -183.5 37t-139.5 129v-137h-291zM410 528q0 -145 65 -229t180 -84q99 0 162.5 79t63.5 232q0 170 -59 250t-177 80q-117 0 -176 -85 t-59 -243z" />
<glyph unicode="c" horiz-adv-x="1150" d="M74 524q0 273 134 433.5t382 160.5q228 0 349.5 -100.5t145.5 -321.5h-303q-26 172 -184 172q-217 0 -217 -336q0 -323 215 -323q173 0 184 188h303q-5 -85 -42.5 -163t-100 -139t-154 -97.5t-198.5 -36.5q-250 0 -382 146.5t-132 416.5z" />
<glyph unicode="d" horiz-adv-x="1261" d="M63 516q0 285 129.5 443.5t344.5 158.5q93 0 171.5 -42.5t127.5 -121.5v519h301v-1473h-289v152q-54 -90 -132.5 -138.5t-199.5 -48.5q-89 0 -170.5 38t-144.5 107t-100.5 174.5t-37.5 231.5zM367 541q0 -168 64 -247t171 -79q106 0 174 77.5t68 235.5t-64 245t-178 87 q-109 0 -172 -81.5t-63 -237.5z" />
<glyph unicode="e" d="M45 537q0 270 143.5 426.5t372.5 156.5q257 0 393 -161q128 -151 128 -453q0 -20 -1 -41h-741q2 -118 64 -190t178 -72q146 0 192 112h305q-14 -150 -146.5 -251t-352.5 -101q-79 0 -153 18.5t-144.5 62t-122.5 108t-83.5 163.5t-31.5 222zM348 657h428q-5 103 -60 162.5 t-153 59.5q-92 0 -146.5 -58.5t-68.5 -163.5z" />
<glyph unicode="f" horiz-adv-x="692" d="M20 874v207h156v62q0 95 16.5 157t58 106t112.5 63.5t180 19.5q67 0 110 -6v-238q-24 4 -80 4q-98 0 -98 -78v-90h189v-207h-189v-874h-295v874h-160z" />
<glyph unicode="g" horiz-adv-x="1261" d="M66 545q0 264 129.5 418.5t336.5 154.5q212 0 310 -184v158h288v-1039q0 -258 -125 -377t-419 -122h-13q-67 0 -127 9q-66 10 -129 34t-109.5 60.5t-77.5 94.5t-38 131h322q14 -52 53.5 -78t136.5 -26q127 0 179.5 68t52.5 245v76q-21 -38 -40 -62t-54 -52.5t-88.5 -43 t-125.5 -14.5q-210 0 -336 145t-126 404zM373 545q0 -134 60 -217.5t175 -83.5q104 0 168 76t64 233q0 153 -65 230t-171 77q-111 0 -171 -79.5t-60 -235.5z" />
<glyph unicode="h" horiz-adv-x="1261" d="M135 0v1468h295v-518q55 85 136.5 127.5t174.5 42.5q387 0 387 -413v-707h-301v662q0 212 -174 212q-223 0 -223 -288v-586h-295z" />
<glyph unicode="i" horiz-adv-x="581" d="M137 0v1092h299v-1092h-299zM137 1217v268h299v-268h-299z" />
<glyph unicode="j" horiz-adv-x="581" d="M12 -203q36 -4 56 -4q39 0 59 20.5t20 75.5v1198h295v-1200q0 -32 -0.5 -49.5t-3.5 -49t-8.5 -50.5t-16.5 -46t-27 -43.5t-40.5 -35t-56 -29t-75 -17.5t-95.5 -7q-18 0 -54.5 1t-52.5 1v235zM147 1217v268h295v-268h-295z" />
<glyph unicode="k" horiz-adv-x="1150" d="M129 0v1468h291v-821l346 440h364l-397 -475l412 -612h-365l-360 561v-561h-291z" />
<glyph unicode="l" horiz-adv-x="606" d="M139 266v1209h295v-1166q0 -102 80 -102q43 0 55 2v-221q-45 -2 -135 -2q-81 0 -140 22.5t-92 63t-48 88.5t-15 106z" />
<glyph unicode="m" horiz-adv-x="1832" d="M129 0v1090h287v-158q58 96 130 140t185 44q218 0 295 -188q107 188 338 188q67 0 125 -21t107 -64t77.5 -120t28.5 -180v-731h-301v692q0 80 -39 127t-121 47q-178 0 -178 -217v-649h-297v645q0 111 -37 164t-123 53q-89 0 -133.5 -47t-44.5 -158v-657h-299z" />
<glyph unicode="n" horiz-adv-x="1261" d="M135 0v1090h285v-158q123 186 325 186q184 0 286 -94t102 -287v-737h-304v662q0 112 -44.5 161t-137.5 49q-35 0 -63.5 -6.5t-58 -25.5t-50 -49.5t-33 -83t-12.5 -121.5v-586h-295z" />
<glyph unicode="o" horiz-adv-x="1261" d="M66 545q0 127 37 233t107 183.5t177.5 121t241.5 43.5q268 0 415.5 -156t147.5 -429q0 -170 -62 -299t-190 -205t-309 -76q-262 0 -413.5 160.5t-151.5 423.5zM375 545q0 -165 66 -250.5t188 -85.5q118 0 186 87.5t68 244.5q0 166 -68.5 252t-185.5 86q-39 0 -72.5 -8 t-68 -31t-58.5 -59t-39.5 -96.5t-15.5 -139.5z" />
<glyph unicode="p" horiz-adv-x="1261" d="M125 -428v1520h283v-162q122 186 325 186q199 0 328 -147.5t129 -409.5q0 -281 -127.5 -435.5t-337.5 -154.5q-194 0 -307 172v-569h-293zM408 522q0 -152 61.5 -228.5t177.5 -76.5q109 0 173.5 86t64.5 242q0 143 -60.5 227t-177.5 84q-239 0 -239 -334z" />
<glyph unicode="q" horiz-adv-x="1261" d="M59 522q0 167 57.5 303t164 215.5t241.5 79.5q113 0 187 -45.5t137 -148.5v164h282v-1522h-290v569q-36 -76 -119.5 -124t-202.5 -48q-65 0 -128.5 20t-123.5 64.5t-105 108t-72.5 157.5t-27.5 207zM367 535q0 -157 60 -236.5t175 -79.5q119 0 181.5 82t62.5 246 q0 152 -66 232.5t-178 80.5q-108 0 -171.5 -80.5t-63.5 -244.5z" />
<glyph unicode="r" horiz-adv-x="808" d="M129 0v1092h283v-191q68 122 143 169.5t182 47.5q25 0 37 -2v-303q-49 6 -84 6q-141 0 -201.5 -72t-60.5 -237v-510h-299z" />
<glyph unicode="s" horiz-adv-x="1150" d="M66 350h301q10 -83 57.5 -122.5t171.5 -39.5q82 0 129 25.5t47 69.5t-28 64.5t-119 43.5l-187 47q-186 46 -263 113t-77 203q0 67 27.5 130.5t81.5 117.5t144.5 87t205.5 33q225 0 345.5 -88.5t139.5 -275.5h-297q-7 76 -53.5 108.5t-130.5 32.5q-92 0 -130 -27.5 t-38 -64.5q0 -38 32 -58.5t126 -43.5l186 -46q157 -38 245.5 -116t88.5 -211q0 -167 -125.5 -268t-372.5 -101q-111 0 -201 21.5t-159 67t-107.5 121t-39.5 177.5z" />
<glyph unicode="t" horiz-adv-x="692" d="M35 872v207h151v307h293v-307h178v-207h-178v-872h-293v872h-151z" />
<glyph unicode="u" horiz-adv-x="1247" d="M125 391v701h303v-654q0 -111 48 -165t147 -54q200 0 200 219v654h299v-662q0 -119 -38 -208t-107.5 -142t-160.5 -79t-204 -26q-223 0 -355 107.5t-132 308.5z" />
<glyph unicode="v" horiz-adv-x="1150" d="M29 1092h329l222 -797l225 797h315l-389 -1092h-311z" />
<glyph unicode="w" horiz-adv-x="1605" d="M14 1092h316l166 -777l153 777h297l162 -779l166 779h307l-315 -1092h-303l-168 791l-168 -791h-308z" />
<glyph unicode="x" horiz-adv-x="1150" d="M29 0l370 553l-354 537h358l177 -310l172 310h348l-357 -533l371 -557h-366l-181 319l-180 -319h-358z" />
<glyph unicode="y" horiz-adv-x="1150" d="M20 1092h328l242 -623l211 623h313l-604 -1520h-289l219 547z" />
<glyph unicode="z" horiz-adv-x="1024" d="M31 0v229l551 623h-512v240h886v-244l-544 -608h565v-240h-946z" />
<glyph unicode="{" horiz-adv-x="806" d="M4 483v121q40 16 61.5 26.5t53 33.5t47.5 49.5t28.5 71t12.5 102.5v276q0 27 1.5 48.5t10.5 58.5t25 65t48.5 60.5t76.5 53.5t113 34.5t155 13.5v-162q-43 -11 -67.5 -21.5t-46 -31.5t-30 -55t-8.5 -88v-246q0 -36 -2 -60t-8 -59.5t-21 -63t-38.5 -58.5t-62.5 -59 t-91 -52q125 -53 174 -126t49 -198v-264q0 -44 10 -78.5t23.5 -54t35 -34t37 -20.5t36.5 -13q7 -2 10 -3v-164q-63 1 -118 8.5t-114.5 29t-101.5 55.5t-69 92t-27 135v323q0 39 -8 72t-28 69t-62.5 65t-104.5 48z" />
<glyph unicode="|" horiz-adv-x="577" d="M102 0v1489h273v-1489h-273z" />
<glyph unicode="}" horiz-adv-x="806" d="M45 -250q59 9 84 25q66 44 66 178v264q0 45 3 74t15.5 66t35.5 65t65 59t102 60q-113 58 -167 134.5t-54 217.5v246q0 3 0.5 23.5t0 27.5t-3.5 26t-8.5 28.5t-16.5 25.5t-27 25.5t-40 20.5t-55 19v162q430 3 430 -334v-276q0 -123 42 -179.5t161 -103.5v-121 q-38 -13 -59 -22t-52.5 -29.5t-48.5 -44.5t-30 -65t-13 -93v-323q0 -309 -430 -320v164z" />
<glyph unicode="~" horiz-adv-x="1196" d="M2 303q12 91 36.5 168.5t64 145t100 106.5t135.5 39q26 0 85.5 -10.5t94.5 -24.5l234 -90q1 0 17 -6t30.5 -10.5t39.5 -8.5t48 -4q117 0 160 174h176q-35 -230 -125 -344t-213 -114q-91 0 -203 45l-209 82q-78 26 -129 26q-15 0 -25 -1t-33 -10t-39.5 -25.5t-35.5 -52 t-31 -85.5h-178z" />
<glyph unicode="&#xa1;" horiz-adv-x="681" d="M225 -20l82 694h154l88 -694v-363h-324v363zM231 791v296h310v-296h-310z" />
<glyph unicode="&#xa2;" d="M66 528q0 88 16 170t53.5 159.5t93.5 134.5t142 91.5t192 34.5q77 0 115 -10l49 180h109l-60 -201q273 -92 303 -389h-303q-8 33 -13.5 50.5t-20 43.5t-35.5 44l-172 -621q31 -8 53 -8q153 0 184 190h303q-2 -38 -7.5 -73.5t-21 -81t-38.5 -83.5t-63 -76t-91.5 -64.5 t-127.5 -43t-167 -16.5q-57 0 -94 6l-59 -211h-115l74 244q-125 44 -212 180.5t-87 349.5zM375 535q0 -198 69 -267l164 598q-4 0 -14 1t-16 1q-88 0 -145.5 -89.5t-57.5 -243.5z" />
<glyph unicode="&#xa3;" d="M66 180q83 44 154 130t71 157q0 64 -47 188h-174v115h110q-90 165 -90 303q0 51 15 103.5t52 106.5t91 95.5t140.5 68t193.5 26.5q71 0 135.5 -13.5t129.5 -47.5t113.5 -86t80.5 -136.5t36 -192.5h-278q-13 132 -68.5 185t-150.5 53q-80 0 -136.5 -50.5t-56.5 -131.5 q0 -29 3.5 -47t26 -74t72.5 -162h283v-115h-240q7 -97 7 -114q0 -88 -39.5 -150t-163.5 -176q16 5 43.5 14.5t39 13t33 9.5t36.5 8t36.5 4t44.5 2q31 0 82 -9.5t72 -16.5q2 -1 17 -5.5t24.5 -7.5t26 -5.5t32.5 -2.5q83 0 203 72l82 -232q-48 -31 -144.5 -63.5t-175.5 -32.5 q-87 0 -215 47q-39 14 -50.5 17.5t-37 10.5t-45 9t-45.5 2q-1 0 -6 0.5t-9.5 0t-15 -2t-25.5 -6.5t-37 -13t-54.5 -21.5t-73.5 -31.5z" />
<glyph unicode="&#xa5;" d="M-23 1434h353l256 -617l241 617h336l-223 -473h137v-138h-205l-104 -217h276v-135h-315v-471h-303v471h-311v135h274l-106 217h-209v138h141z" />
<glyph unicode="&#xa7;" d="M63 569q0 43 7.5 79t26.5 75.5t58 75t97 65.5q-48 31 -77.5 93.5t-29.5 150.5q0 63 22.5 124.5t69.5 117.5t132.5 90.5t197.5 34.5q62 0 113.5 -9t104.5 -34.5t91.5 -66t66.5 -108t38 -157.5h-266q-10 63 -30 91q-41 58 -134 58q-22 0 -43.5 -5t-43.5 -16.5t-36 -35.5 t-14 -57q0 -43 26.5 -68.5t126.5 -69.5l162 -71q167 -74 251.5 -165.5t84.5 -193.5q0 -100 -44.5 -170.5t-148.5 -124.5q4 -3 22 -19.5t23.5 -22t21 -22.5t21.5 -28t16.5 -31.5t15 -39.5t8.5 -45.5t4 -55.5q0 -83 -27.5 -151.5t-72 -113t-102 -75t-115.5 -44t-116 -13.5 q-63 0 -119 9.5t-114 36t-102 68t-75.5 110.5t-39.5 159h280q16 -94 61.5 -125t115.5 -31q57 0 99 35.5t42 91.5q0 30 -17 58t-44.5 48t-50 33t-45.5 24q-5 2 -7 3l-168 82q-47 23 -74.5 37t-66 37t-61.5 41.5t-49 46t-40 55t-23.5 63.5t-9.5 76zM313 645q0 -42 30 -72.5 t103 -66.5l277 -139q18 8 34.5 20t33 41t16.5 66q0 10 -0.5 15.5t-6 19.5t-16.5 25.5t-33.5 27.5t-54.5 32l-301 150q-82 -39 -82 -119z" />
<glyph unicode="&#xa8;" horiz-adv-x="681" d="M-43 1257v240h266v-240h-266zM362 1257v240h271v-240h-271z" />
<glyph unicode="&#xa9;" horiz-adv-x="1509" d="M27 737q0 104 28.5 207.5t89.5 199.5t146 169.5t208 117.5t267 44q104 0 208.5 -31t199 -94t167.5 -150t116.5 -207t43.5 -256q0 -98 -25.5 -198t-83.5 -197.5t-141 -173t-209 -122t-276 -46.5q-100 0 -200.5 26t-198.5 84t-173 141.5t-121 209t-46 276.5zM156 737 q0 -162 78.5 -302t219.5 -225t312 -85q118 0 228 47t192.5 127.5t132 195t49.5 242.5q0 82 -24 166.5t-74.5 164t-120.5 141.5t-169.5 99.5t-213.5 37.5q-81 0 -165 -23.5t-164 -73.5t-142.5 -120t-100.5 -172t-38 -220zM369 735q0 55 9.5 109.5t37 115.5t70 107t115 76.5 t165.5 30.5q148 0 247 -80.5t130 -243.5l-195 2q-6 31 -14.5 53t-26.5 45.5t-50 36t-77 12.5q-17 0 -30.5 -2t-37 -9t-41.5 -25.5t-36 -46.5t-27.5 -77t-9.5 -112q0 -123 51 -188.5t142 -65.5q25 0 44.5 4t43.5 17t42 43.5t27 76.5h189q-27 -150 -118.5 -233.5t-238.5 -83.5 q-51 0 -104 13.5t-109 46t-99 81t-71 125.5t-28 172z" />
<glyph unicode="&#xaa;" d="M57 293q0 35 3 63t13 62.5t27.5 62t48.5 56.5t73.5 50.5t105 39.5t141.5 28l78 11q124 14 182 32v70q0 55 -35.5 84t-140.5 29q-87 0 -125 -34.5t-53 -109.5h-285q27 381 471 381q463 0 463 -344v-487q0 -225 27 -287h-287q-17 49 -27 127q-1 -1 -11.5 -12.5t-16.5 -17.5 t-20 -19.5t-25 -22t-30 -21t-36 -21t-40.5 -18t-47.5 -15.5t-53 -10t-60 -5q-47 -1 -92 8.5t-91 33t-80 59.5t-55.5 94.5t-21.5 132.5zM352 313q0 -58 27.5 -95t105.5 -40q23 -1 45 0.5t60.5 14.5t66 37t49 74.5t21.5 121.5v84q-17 -5 -123 -27l-59 -12q-3 0 -23 -4t-26 -5 t-25 -6t-26.5 -8.5t-23.5 -11t-23 -14.5t-18 -18.5t-15.5 -24.5t-8.5 -30t-4 -36z" />
<glyph unicode="&#xab;" d="M172 442v242l344 299v-244l-201 -176l201 -174v-244zM618 442v242l345 299v-244l-203 -176l203 -174v-244z" />
<glyph unicode="&#xad;" horiz-adv-x="681" d="M43 432v279h582v-279h-582z" />
<glyph unicode="&#xae;" horiz-adv-x="1509" d="M27 737q0 149 57 285t154.5 235.5t235.5 158.5t292 59q104 0 208.5 -31t199 -94t167.5 -150t116.5 -207t43.5 -256q0 -98 -25.5 -198t-83.5 -197.5t-141 -173t-209 -122t-276 -46.5q-100 0 -201 26t-198.5 84.5t-172.5 142.5t-121 209t-46 275zM156 737q0 -161 77.5 -301 t219 -225.5t313.5 -85.5q118 0 228 47t192.5 127.5t132 195t49.5 242.5q0 82 -24 166.5t-74.5 164t-120.5 141.5t-169.5 99.5t-213.5 37.5q-88 0 -175 -25.5t-165.5 -77.5t-138.5 -124t-95.5 -171t-35.5 -211zM438 328v817h367q153 0 228 -64t75 -176q0 -47 -13.5 -83 t-32 -56.5t-48.5 -35.5t-52 -21t-53 -11q43 -8 73 -20t58.5 -36.5t43 -68t14.5 -106.5v-76q0 -42 14 -63h-211q-1 3 -10 80l-4 32q-11 100 -43 136t-94 36h-91v-284h-221zM659 766h80q154 0 154 125q0 104 -188 104h-46v-229z" />
<glyph unicode="&#xaf;" horiz-adv-x="681" d="M-63 1303v155h716v-155h-716z" />
<glyph unicode="&#xb0;" horiz-adv-x="819" d="M92 1139q0 54 19.5 109t57.5 103.5t103 79.5t146 31q40 0 83.5 -12.5t86.5 -39t77 -64t55 -92t21 -117.5q0 -53 -19 -108t-56.5 -105t-102 -81.5t-145.5 -31.5q-36 0 -76 9t-85.5 33t-81.5 59.5t-59.5 94.5t-23.5 132zM260 1137q0 -65 47 -110.5t111 -45.5 q66 0 111.5 46.5t45.5 109.5q0 60 -38 109.5t-119 49.5q-58 0 -108 -42.5t-50 -116.5z" />
<glyph unicode="&#xb4;" horiz-adv-x="681" d="M123 1239l190 301h330l-309 -301h-211z" />
<glyph unicode="&#xb6;" horiz-adv-x="1142" d="M-68 969q0 226 128 366t358 140h659v-179h-125v-1667h-209v1667h-190v-1667h-209v865q-88 -1 -162.5 29t-130.5 88t-87.5 149.5t-31.5 208.5z" />
<glyph unicode="&#xb7;" horiz-adv-x="569" d="M109 721q0 17 3.5 36t15 44t29 44t49.5 32.5t73 13.5q37 0 74 -14.5t68.5 -55t31.5 -100.5q0 -69 -46.5 -119.5t-125.5 -50.5q-27 0 -54 8t-55 25.5t-45.5 53t-17.5 83.5z" />
<glyph unicode="&#xb8;" horiz-adv-x="681" d="M16 -104l215 104h109l-86 -131q40 12 78 12q30 0 57 -5.5t56.5 -20.5t47 -47.5t17.5 -79.5q0 -35 -13 -67.5t-41.5 -64t-85 -50.5t-132.5 -19q-88 0 -218 55l39 86q103 -35 160 -35q53 0 82 22.5t29 57.5q0 41 -27 58.5t-63 17.5q-25 0 -84 -16z" />
<glyph unicode="&#xbb;" d="M180 145v244l205 174l-205 176v244l344 -299v-242zM627 145v244l202 174l-202 176v244l342 -299v-242z" />
<glyph unicode="&#xbf;" horiz-adv-x="1251" d="M100 29q0 105 47 188t168 172l68 49q42 31 65 78.5t23 138.5h281q-3 -75 -8 -119t-14 -82.5t-28.5 -66t-45 -52.5t-70.5 -59l-70 -53q-98 -76 -98 -176q0 -86 49 -141.5t151 -55.5q96 0 152.5 63t56.5 165h299q-5 -105 -35 -190t-87.5 -151t-151.5 -102t-219 -36 q-75 0 -145.5 11.5t-142.5 42t-125 77.5t-86.5 124t-33.5 175zM451 791v296h309v-296h-309z" />
<glyph unicode="&#xc0;" horiz-adv-x="1488" d="M53 0l525 1475h360l520 -1475h-344l-90 289h-541l-94 -289h-336zM424 1913h325l193 -301h-211zM569 553h367l-180 571z" />
<glyph unicode="&#xc1;" horiz-adv-x="1488" d="M53 0l525 1475h360l520 -1475h-344l-90 289h-541l-94 -289h-336zM569 553h367l-180 571zM592 1612l190 301h330l-309 -301h-211z" />
<glyph unicode="&#xc2;" horiz-adv-x="1488" d="M53 0l525 1475h360l520 -1475h-344l-90 289h-541l-94 -289h-336zM399 1612l238 301h262l238 -301h-240l-129 166l-131 -166h-238zM569 553h367l-180 571z" />
<glyph unicode="&#xc3;" horiz-adv-x="1488" d="M53 0l525 1475h360l520 -1475h-344l-90 289h-541l-94 -289h-336zM387 1626q12 55 26.5 93.5t41.5 78t73.5 60t110.5 20.5q48 0 141 -35q107 -41 133 -41q40 0 57.5 15.5t37.5 70.5h137q-8 -45 -22 -84t-40 -78.5t-69.5 -62.5t-100.5 -23q-26 0 -82.5 13t-113.5 35 q-58 22 -101 22q-76 0 -94 -84h-135zM569 553h367l-180 571z" />
<glyph unicode="&#xc4;" horiz-adv-x="1488" d="M53 0l525 1475h360l520 -1475h-344l-90 289h-541l-94 -289h-336zM426 1630v240h266v-240h-266zM569 553h367l-180 571zM831 1630v240h271v-240h-271z" />
<glyph unicode="&#xc5;" horiz-adv-x="1488" d="M53 0l525 1475h360l520 -1475h-344l-90 289h-541l-94 -289h-336zM541 1819q0 83 59.5 151t159.5 68q82 0 150.5 -59t68.5 -160q0 -84 -57 -152t-162 -68q-53 0 -101 22t-83 73.5t-35 124.5zM569 553h367l-180 571zM643 1819q0 -52 36 -84.5t81 -32.5q47 0 82 32.5 t35 84.5q0 63 -38 90.5t-79 27.5q-40 0 -78.5 -28.5t-38.5 -89.5z" />
<glyph unicode="&#xc6;" horiz-adv-x="2048" d="M18 0l531 1468h1401v-264h-754v-301h676v-264h-676v-371h768v-268h-1081v299h-434l-101 -299h-330zM532 551h351v659h-127z" />
<glyph unicode="&#xc7;" horiz-adv-x="1478" d="M92 723q0 131 22.5 241t60 188.5t91 140.5t112 100.5t125.5 63t128.5 34.5t124.5 10q141 0 256 -37t185 -93.5t118.5 -129t68 -137.5t21.5 -125h-318q-11 37 -21 62t-26.5 57t-39.5 53t-54.5 40t-76.5 28.5t-101 9.5q-52 0 -99.5 -14.5t-93.5 -50.5t-80 -92t-54.5 -146 t-20.5 -205q0 -238 96.5 -363t253.5 -125q42 0 73.5 4.5t68.5 21t66 44.5t57.5 77t49.5 118h316q-19 -106 -67 -201t-121.5 -171.5t-178.5 -121.5t-227 -45l-62 -90q62 12 76 12q80 0 130 -37.5t50 -115.5q0 -34 -12.5 -66.5t-41 -64t-85 -51t-133.5 -19.5q-85 0 -215 55 l37 86q110 -35 158 -35q59 0 85.5 25.5t26.5 54.5v4q0 13 -1.5 21.5t-9 22t-28 21t-53.5 7.5q-39 0 -84 -16l-45 37l94 149q-87 0 -172 30.5t-163 93.5t-137.5 152t-94.5 215t-35 273z" />
<glyph unicode="&#xc8;" horiz-adv-x="1366" d="M166 0v1475h1079v-271h-768v-299h705v-264h-705v-369h807v-272h-1118zM457 1913h325l193 -301h-211z" />
<glyph unicode="&#xc9;" horiz-adv-x="1366" d="M166 0v1475h1079v-271h-768v-299h705v-264h-705v-369h807v-272h-1118zM623 1612l190 301h330l-309 -301h-211z" />
<glyph unicode="&#xca;" horiz-adv-x="1366" d="M166 0v1475h1079v-271h-768v-299h705v-264h-705v-369h807v-272h-1118zM432 1612l238 301h262l237 -301h-239l-129 166l-131 -166h-238z" />
<glyph unicode="&#xcb;" horiz-adv-x="1366" d="M166 0v1475h1079v-271h-768v-299h705v-264h-705v-369h807v-272h-1118zM457 1630v240h266v-240h-266zM862 1630v240h271v-240h-271z" />
<glyph unicode="&#xcc;" horiz-adv-x="1177" d="M127 0v1475h317v-1475h-317zM313 1913h326l192 -301h-210z" />
<glyph unicode="&#xcd;" horiz-adv-x="1177" d="M127 0v1475h317v-1475h-317zM383 1612l190 301h330l-309 -301h-211z" />
<glyph unicode="&#xce;" horiz-adv-x="1177" d="M127 0v1475h317v-1475h-317zM221 1612l238 301h262l237 -301h-239l-129 166l-131 -166h-238z" />
<glyph unicode="&#xcf;" horiz-adv-x="1177" d="M127 0v1475h317v-1475h-317zM256 1630v240h266v-240h-266zM662 1630v240h270v-240h-270z" />
<glyph unicode="&#xd1;" horiz-adv-x="1478" d="M152 0v1475h329l574 -1014v1014h295v-1475h-316l-585 1032v-1032h-297zM428 1626q12 55 26.5 93.5t41.5 78t73.5 60t110.5 20.5q48 0 141 -35q105 -40 133 -40q40 0 57.5 15.5t37.5 70.5h137q-8 -45 -22 -84t-40 -78.5t-69.5 -62.5t-100.5 -23q-26 0 -82.5 12.5 t-113.5 34.5q-58 22 -101 22q-76 0 -94 -84h-135z" />
<glyph unicode="&#xd2;" horiz-adv-x="1593" d="M102 741q0 188 52 336.5t146.5 245.5t224 148t286.5 51q154 0 282 -49.5t222 -145.5t146 -247t52 -343q0 -370 -189 -574t-513 -204q-329 0 -519 205.5t-190 576.5zM420 741q0 -130 30.5 -230.5t84.5 -161.5t123 -91.5t151 -30.5q171 0 279 131.5t108 378.5 q0 128 -30 227.5t-83.5 161t-123 92.5t-150.5 31q-175 0 -282 -129.5t-107 -378.5zM535 1952h325l193 -301h-211z" />
<glyph unicode="&#xd3;" horiz-adv-x="1593" d="M102 741q0 188 52 336.5t146.5 245.5t224 148t286.5 51q154 0 282 -49.5t222 -145.5t146 -247t52 -343q0 -370 -189 -574t-513 -204q-329 0 -519 205.5t-190 576.5zM420 741q0 -130 30.5 -230.5t84.5 -161.5t123 -91.5t151 -30.5q171 0 279 131.5t108 378.5 q0 128 -30 227.5t-83.5 161t-123 92.5t-150.5 31q-175 0 -282 -129.5t-107 -378.5zM700 1651l191 301h330l-310 -301h-211z" />
<glyph unicode="&#xd4;" horiz-adv-x="1593" d="M102 741q0 188 52 336.5t146.5 245.5t224 148t286.5 51q154 0 282 -49.5t222 -145.5t146 -247t52 -343q0 -370 -189 -574t-513 -204q-329 0 -519 205.5t-190 576.5zM420 741q0 -130 30.5 -230.5t84.5 -161.5t123 -91.5t151 -30.5q171 0 279 131.5t108 378.5 q0 128 -30 227.5t-83.5 161t-123 92.5t-150.5 31q-175 0 -282 -129.5t-107 -378.5zM510 1651l238 301h262l237 -301h-239l-129 166l-131 -166h-238z" />
<glyph unicode="&#xd5;" horiz-adv-x="1593" d="M102 741q0 188 52 336.5t146.5 245.5t224 148t286.5 51q154 0 282 -49.5t222 -145.5t146 -247t52 -343q0 -370 -189 -574t-513 -204q-329 0 -519 205.5t-190 576.5zM420 741q0 -130 30.5 -230.5t84.5 -161.5t123 -91.5t151 -30.5q171 0 279 131.5t108 378.5 q0 128 -30 227.5t-83.5 161t-123 92.5t-150.5 31q-175 0 -282 -129.5t-107 -378.5zM498 1665q12 55 26.5 93.5t41.5 78t73.5 60t110.5 20.5q48 0 141 -35q107 -41 133 -41q40 0 57 15.5t37 70.5h137q-8 -45 -22 -84t-39.5 -78.5t-69 -62.5t-100.5 -23q-26 0 -83 12.5 t-114 34.5q-61 23 -100 23q-76 0 -94 -84h-135z" />
<glyph unicode="&#xd6;" horiz-adv-x="1593" d="M102 741q0 188 52 336.5t146.5 245.5t224 148t286.5 51q154 0 282 -49.5t222 -145.5t146 -247t52 -343q0 -370 -189 -574t-513 -204q-329 0 -519 205.5t-190 576.5zM420 741q0 -130 30.5 -230.5t84.5 -161.5t123 -91.5t151 -30.5q171 0 279 131.5t108 378.5 q0 128 -30 227.5t-83.5 161t-123 92.5t-150.5 31q-175 0 -282 -129.5t-107 -378.5zM535 1669v240h266v-240h-266zM940 1669v240h270v-240h-270z" />
<glyph unicode="&#xd8;" horiz-adv-x="1593" d="M59 2l193 211q-150 205 -150 528q0 188 52 336.5t146.5 245.5t224 148t286.5 51q295 0 475 -168l178 194l88 -84l-184 -202q145 -200 145 -525q0 -370 -189 -574t-513 -204q-291 0 -475 164l-193 -211zM420 741q0 -169 51 -286l610 671q-103 123 -272 123 q-175 0 -282 -129.5t-107 -378.5zM539 346q104 -119 270 -119q171 0 279 131.5t108 378.5q0 161 -49 281z" />
<glyph unicode="&#xd9;" horiz-adv-x="1478" d="M154 563v912h325v-908q0 -186 66 -262t207 -76q147 0 206.5 79.5t59.5 258.5v908h325v-912q0 -305 -141.5 -453.5t-451.5 -148.5q-298 0 -447 141t-149 461zM487 1913h326l193 -301h-211z" />
<glyph unicode="&#xda;" horiz-adv-x="1478" d="M154 563v912h325v-908q0 -186 66 -262t207 -76q147 0 206.5 79.5t59.5 258.5v908h325v-912q0 -305 -141.5 -453.5t-451.5 -148.5q-298 0 -447 141t-149 461zM653 1612l191 301h330l-310 -301h-211z" />
<glyph unicode="&#xdb;" horiz-adv-x="1478" d="M154 563v912h325v-908q0 -186 66 -262t207 -76q147 0 206.5 79.5t59.5 258.5v908h325v-912q0 -305 -141.5 -453.5t-451.5 -148.5q-298 0 -447 141t-149 461zM463 1612l237 301h263l237 -301h-239l-130 166l-131 -166h-237z" />
<glyph unicode="&#xdc;" horiz-adv-x="1478" d="M154 563v912h325v-908q0 -186 66 -262t207 -76q147 0 206.5 79.5t59.5 258.5v908h325v-912q0 -305 -141.5 -453.5t-451.5 -148.5q-298 0 -447 141t-149 461zM487 1630v240h267v-240h-267zM893 1630v240h270v-240h-270z" />
<glyph unicode="&#xdf;" horiz-adv-x="1251" d="M131 -428v1464q0 90 13 158t46 127t87 96.5t138.5 58.5t198.5 21q78 0 148.5 -14t133 -44.5t108 -75t72 -109.5t26.5 -144q0 -174 -152 -266q125 -53 179.5 -152t54.5 -221q0 -42 -5.5 -84.5t-20 -93t-38.5 -94.5t-64 -86.5t-91.5 -72.5t-127 -48.5t-165.5 -18.5 q-17 0 -56.5 4.5t-50.5 8.5v235q14 -2 64 -2q133 0 195.5 59t62.5 187q0 115 -56.5 167.5t-203.5 72.5q-3 0 -19.5 2t-27.5 4v200q14 2 43 2q40 2 65 7.5t52.5 21.5t41 51.5t13.5 89.5q0 75 -42.5 127t-144.5 52q-112 0 -148 -57t-36 -206v-1427h-293z" />
<glyph unicode="&#xe0;" horiz-adv-x="1261" d="M63 516q0 285 129.5 443.5t344.5 158.5q103 0 184 -49.5t125 -140.5v162h291v-1090h-289v152q-54 -90 -132.5 -138.5t-199.5 -48.5q-89 0 -170.5 38t-144.5 107t-100.5 174.5t-37.5 231.5zM295 1540h326l192 -301h-211zM367 541q0 -168 64 -247t171 -79q106 0 174 77.5 t68 235.5t-64 245t-178 87q-109 0 -172 -81.5t-63 -237.5z" />
<glyph unicode="&#xe1;" horiz-adv-x="1261" d="M63 516q0 285 129.5 443.5t344.5 158.5q103 0 184 -49.5t125 -140.5v162h291v-1090h-289v152q-54 -90 -132.5 -138.5t-199.5 -48.5q-89 0 -170.5 38t-144.5 107t-100.5 174.5t-37.5 231.5zM367 541q0 -168 64 -247t171 -79q106 0 174 77.5t68 235.5t-64 245t-178 87 q-109 0 -172 -81.5t-63 -237.5zM463 1239l190 301h330l-309 -301h-211z" />
<glyph unicode="&#xe2;" horiz-adv-x="1261" d="M63 516q0 285 129.5 443.5t344.5 158.5q103 0 184 -49.5t125 -140.5v162h291v-1090h-289v152q-54 -90 -132.5 -138.5t-199.5 -48.5q-89 0 -170.5 38t-144.5 107t-100.5 174.5t-37.5 231.5zM270 1239l238 301h262l238 -301h-240l-129 166l-131 -166h-238zM367 541 q0 -168 64 -247t171 -79q106 0 174 77.5t68 235.5t-64 245t-178 87q-109 0 -172 -81.5t-63 -237.5z" />
<glyph unicode="&#xe3;" horiz-adv-x="1261" d="M63 516q0 285 129.5 443.5t344.5 158.5q103 0 184 -49.5t125 -140.5v162h291v-1090h-289v152q-54 -90 -132.5 -138.5t-199.5 -48.5q-89 0 -170.5 38t-144.5 107t-100.5 174.5t-37.5 231.5zM258 1253q12 55 26.5 93.5t41.5 78t73.5 60t110.5 20.5q48 0 141 -35 q105 -40 133 -40q40 0 57.5 15.5t37.5 70.5h137q-8 -45 -22 -84t-40 -78.5t-69.5 -62.5t-100.5 -23q-26 0 -82.5 12.5t-113.5 34.5q-58 22 -101 22q-76 0 -94 -84h-135zM367 541q0 -168 64 -247t171 -79q106 0 174 77.5t68 235.5t-64 245t-178 87q-109 0 -172 -81.5 t-63 -237.5z" />
<glyph unicode="&#xe4;" horiz-adv-x="1261" d="M63 516q0 285 129.5 443.5t344.5 158.5q103 0 184 -49.5t125 -140.5v162h291v-1090h-289v152q-54 -90 -132.5 -138.5t-199.5 -48.5q-89 0 -170.5 38t-144.5 107t-100.5 174.5t-37.5 231.5zM297 1257v240h266v-240h-266zM367 541q0 -168 64 -247t171 -79q106 0 174 77.5 t68 235.5t-64 245t-178 87q-109 0 -172 -81.5t-63 -237.5zM702 1257v240h271v-240h-271z" />
<glyph unicode="&#xe5;" horiz-adv-x="1261" d="M63 516q0 285 129.5 443.5t344.5 158.5q103 0 184 -49.5t125 -140.5v162h291v-1090h-289v152q-54 -90 -132.5 -138.5t-199.5 -48.5q-89 0 -170.5 38t-144.5 107t-100.5 174.5t-37.5 231.5zM367 541q0 -168 64 -247t171 -79q106 0 174 77.5t68 235.5t-64 245t-178 87 q-109 0 -172 -81.5t-63 -237.5zM414 1446q0 83 59.5 151t159.5 68q82 0 150.5 -59t68.5 -160q0 -84 -57 -151.5t-162 -67.5q-84 0 -151.5 56.5t-67.5 162.5zM516 1446q0 -52 36 -84.5t81 -32.5q47 0 82 32.5t35 84.5q0 34 -12.5 59t-32 37t-37.5 17.5t-35 5.5 q-40 0 -78.5 -29t-38.5 -90z" />
<glyph unicode="&#xe6;" horiz-adv-x="1820" d="M53 297q0 154 85 231t288 109l164 27q134 24 151 34v68q0 22 -5.5 39t-23 36.5t-58.5 30.5t-103 11q-25 0 -41 -1.5t-42 -9.5t-42 -22.5t-29.5 -44.5t-15.5 -72h-289q6 183 131 283t359 100q42 0 63.5 -1.5t71 -10t101 -34t106.5 -66.5q81 61 156 86.5t163 25.5 q253 0 383.5 -158t126.5 -485h-741q0 -139 45 -207.5t166 -68.5q24 0 38.5 0.5t46 7.5t53 19.5t45 39t36.5 64.5h299q-3 -27 -12.5 -57t-28.5 -66.5t-45.5 -69.5t-67 -65t-89.5 -55.5t-117 -37.5t-146 -14q-37 0 -62.5 1.5t-73.5 11t-85.5 26.5t-81.5 53t-78 86 q-72 -90 -172 -134t-244 -44q-100 0 -176 27.5t-120.5 75t-66.5 105.5t-22 126zM350 301q0 -13 2 -26t11 -32t24 -33t44 -24t67 -10q51 0 90.5 10t75.5 34.5t55.5 73t19.5 118.5v96q-47 -15 -110 -29l-107 -22q-27 -6 -37.5 -8.5t-32 -8.5t-30.5 -11t-24 -14t-21 -19 t-14 -23.5t-10.5 -31.5t-2.5 -40zM1016 662h430q-3 33 -7 53.5t-17.5 56.5t-34.5 57.5t-60.5 38.5t-93.5 17q-40 0 -73 -8t-54.5 -20t-38 -31.5t-25 -37.5t-14.5 -43t-8 -42t-4 -41z" />
<glyph unicode="&#xe7;" horiz-adv-x="1150" d="M74 524q0 86 13 164t48.5 158.5t91 139t149 95.5t214.5 37q48 0 88 -3t89 -14t88 -29t79.5 -50t69.5 -75.5t50.5 -107.5t30.5 -143h-303q-3 22 -6 36t-15 43t-30 46.5t-52.5 32t-80.5 14.5q-217 0 -217 -336q0 -323 215 -323q173 0 184 188h303q-3 -47 -18.5 -100 t-51.5 -113t-86.5 -108t-131 -80.5t-177.5 -34.5l-59 -92q54 12 76 12q80 0 130 -37.5t50 -115.5q0 -84 -71 -142.5t-201 -58.5q-13 0 -25.5 1t-26.5 3t-23.5 4t-25.5 6.5t-23 6.5t-24.5 8t-22.5 8t-25 9.5t-23 8.5l41 86q117 -35 157 -35q58 0 84.5 26t26.5 54q0 36 -24 56 t-66 20q-39 0 -86 -16l-43 37l100 151q-61 0 -120.5 18t-118 61t-103 106t-71.5 160.5t-27 217.5z" />
<glyph unicode="&#xe8;" d="M45 537q0 270 143.5 426.5t372.5 156.5q256 0 392.5 -161t127.5 -494h-741q2 -118 64 -190t178 -72q146 0 192 112h305q-14 -150 -146.5 -251t-352.5 -101q-79 0 -153 18.5t-144.5 62t-122.5 108t-83.5 163.5t-31.5 222zM299 1540h326l192 -301h-211zM348 657h428 q-5 103 -60 162.5t-153 59.5q-92 0 -146.5 -58.5t-68.5 -163.5z" />
<glyph unicode="&#xe9;" d="M45 537q0 270 143.5 426.5t372.5 156.5q256 0 392.5 -161t127.5 -494h-741q2 -118 64 -190t178 -72q146 0 192 112h305q-14 -150 -146.5 -251t-352.5 -101q-79 0 -153 18.5t-144.5 62t-122.5 108t-83.5 163.5t-31.5 222zM348 657h428q-5 103 -60 162.5t-153 59.5 q-92 0 -146.5 -58.5t-68.5 -163.5zM465 1239l190 301h330l-309 -301h-211z" />
<glyph unicode="&#xea;" d="M45 537q0 270 143.5 426.5t372.5 156.5q256 0 392.5 -161t127.5 -494h-741q2 -118 64 -190t178 -72q146 0 192 112h305q-14 -150 -146.5 -251t-352.5 -101q-79 0 -153 18.5t-144.5 62t-122.5 108t-83.5 163.5t-31.5 222zM274 1239l238 301h262l238 -301h-240l-129 166 l-131 -166h-238zM348 657h428q-5 103 -60 162.5t-153 59.5q-92 0 -146.5 -58.5t-68.5 -163.5z" />
<glyph unicode="&#xeb;" d="M45 537q0 270 143.5 426.5t372.5 156.5q256 0 392.5 -161t127.5 -494h-741q2 -118 64 -190t178 -72q146 0 192 112h305q-14 -150 -146.5 -251t-352.5 -101q-79 0 -153 18.5t-144.5 62t-122.5 108t-83.5 163.5t-31.5 222zM299 1257v240h266v-240h-266zM348 657h428 q-5 103 -60 162.5t-153 59.5q-92 0 -146.5 -58.5t-68.5 -163.5zM705 1257v240h270v-240h-270z" />
<glyph unicode="&#xec;" horiz-adv-x="569" d="M-39 1540h326l192 -301h-211zM131 0v1092h301v-1092h-301z" />
<glyph unicode="&#xed;" horiz-adv-x="569" d="M96 1239l191 301h329l-309 -301h-211zM131 0v1092h301v-1092h-301z" />
<glyph unicode="&#xee;" horiz-adv-x="569" d="M-82 1239l238 301h262l237 -301h-239l-129 166l-131 -166h-238zM131 0v1092h301v-1092h-301z" />
<glyph unicode="&#xef;" horiz-adv-x="569" d="M-53 1257v240h266v-240h-266zM131 0v1092h301v-1092h-301zM352 1257v240h271v-240h-271z" />
<glyph unicode="&#xf1;" horiz-adv-x="1261" d="M135 0v1090h285v-158q123 186 325 186q184 0 286 -94t102 -287v-737h-304v662q0 112 -44.5 161t-137.5 49q-35 0 -63.5 -6.5t-58 -25.5t-50 -49.5t-33 -83t-12.5 -121.5v-586h-295zM258 1253q12 55 26.5 93.5t41.5 78t73.5 60t110.5 20.5q48 0 141 -35q105 -40 133 -40 q40 0 57.5 15.5t37.5 70.5h137q-8 -45 -22 -84t-40 -78.5t-69.5 -62.5t-100.5 -23q-26 0 -82.5 12.5t-113.5 34.5q-58 22 -101 22q-76 0 -94 -84h-135z" />
<glyph unicode="&#xf2;" horiz-adv-x="1261" d="M66 545q0 127 37 233t107 183.5t177.5 121t241.5 43.5q268 0 415.5 -156t147.5 -429q0 -170 -62 -299t-190 -205t-309 -76q-262 0 -413.5 160.5t-151.5 423.5zM295 1540h326l192 -301h-211zM375 545q0 -165 66 -250.5t188 -85.5q118 0 186 87.5t68 244.5q0 166 -68.5 252 t-185.5 86q-39 0 -72.5 -8t-68 -31t-58.5 -59t-39.5 -96.5t-15.5 -139.5z" />
<glyph unicode="&#xf3;" horiz-adv-x="1261" d="M66 545q0 127 37 233t107 183.5t177.5 121t241.5 43.5q268 0 415.5 -156t147.5 -429q0 -170 -62 -299t-190 -205t-309 -76q-262 0 -413.5 160.5t-151.5 423.5zM375 545q0 -165 66 -250.5t188 -85.5q118 0 186 87.5t68 244.5q0 166 -68.5 252t-185.5 86q-39 0 -72.5 -8 t-68 -31t-58.5 -59t-39.5 -96.5t-15.5 -139.5zM463 1239l190 301h330l-309 -301h-211z" />
<glyph unicode="&#xf4;" horiz-adv-x="1261" d="M66 545q0 127 37 233t107 183.5t177.5 121t241.5 43.5q268 0 415.5 -156t147.5 -429q0 -170 -62 -299t-190 -205t-309 -76q-262 0 -413.5 160.5t-151.5 423.5zM270 1239l238 301h262l238 -301h-240l-129 166l-131 -166h-238zM375 545q0 -165 66 -250.5t188 -85.5 q118 0 186 87.5t68 244.5q0 166 -68.5 252t-185.5 86q-39 0 -72.5 -8t-68 -31t-58.5 -59t-39.5 -96.5t-15.5 -139.5z" />
<glyph unicode="&#xf5;" horiz-adv-x="1261" d="M66 545q0 127 37 233t107 183.5t177.5 121t241.5 43.5q268 0 415.5 -156t147.5 -429q0 -170 -62 -299t-190 -205t-309 -76q-262 0 -413.5 160.5t-151.5 423.5zM260 1253q12 55 26.5 93.5t41.5 78t73.5 60t110.5 20.5q48 0 141 -35q105 -40 133 -40q40 0 57.5 15.5 t37.5 70.5h137q-8 -45 -22 -84t-40 -78.5t-69.5 -62.5t-100.5 -23q-26 0 -82.5 12.5t-113.5 34.5q-58 22 -101 22q-76 0 -94 -84h-135zM375 545q0 -165 66 -250.5t188 -85.5q118 0 186 87.5t68 244.5q0 166 -68.5 252t-185.5 86q-39 0 -72.5 -8t-68 -31t-58.5 -59 t-39.5 -96.5t-15.5 -139.5z" />
<glyph unicode="&#xf6;" horiz-adv-x="1261" d="M66 545q0 127 37 233t107 183.5t177.5 121t241.5 43.5q268 0 415.5 -156t147.5 -429q0 -170 -62 -299t-190 -205t-309 -76q-262 0 -413.5 160.5t-151.5 423.5zM297 1257v240h266v-240h-266zM375 545q0 -165 66 -250.5t188 -85.5q118 0 186 87.5t68 244.5q0 166 -68.5 252 t-185.5 86q-39 0 -72.5 -8t-68 -31t-58.5 -59t-39.5 -96.5t-15.5 -139.5zM702 1257v240h271v-240h-271z" />
<glyph unicode="&#xf8;" horiz-adv-x="1251" d="M39 0l141 143q-121 162 -121 402q0 120 37.5 225.5t106 184.5t172 125t227.5 46q56 0 95 -3t94 -13.5t107 -36.5t101 -67l138 145l73 -70l-143 -147q32 -45 53.5 -83.5t43.5 -121t22 -176.5q0 -270 -155.5 -432t-420.5 -162q-40 0 -70 2.5t-81 13t-104 37t-105 68.5 l-137 -143zM369 553q0 -121 30 -178l406 430q-65 74 -187 74q-116 0 -182.5 -85t-66.5 -241zM451 285q45 -43 81 -60.5t101 -17.5q119 0 181.5 93t62.5 239q0 85 -21 174z" />
<glyph unicode="&#xf9;" horiz-adv-x="1247" d="M125 391v701h303v-654q0 -111 48 -165t147 -54q200 0 200 219v654h299v-662q0 -119 -38 -208t-107.5 -142t-160.5 -79t-204 -26q-223 0 -355 107.5t-132 308.5zM297 1540h326l192 -301h-211z" />
<glyph unicode="&#xfa;" horiz-adv-x="1247" d="M125 391v701h303v-654q0 -111 48 -165t147 -54q200 0 200 219v654h299v-662q0 -119 -38 -208t-107.5 -142t-160.5 -79t-204 -26q-223 0 -355 107.5t-132 308.5zM465 1239l190 301h330l-309 -301h-211z" />
<glyph unicode="&#xfb;" horiz-adv-x="1247" d="M125 391v701h303v-654q0 -111 48 -165t147 -54q200 0 200 219v654h299v-662q0 -119 -38 -208t-107.5 -142t-160.5 -79t-204 -26q-223 0 -355 107.5t-132 308.5zM272 1239l238 301h262l238 -301h-240l-129 166l-131 -166h-238z" />
<glyph unicode="&#xfc;" horiz-adv-x="1247" d="M125 391v701h303v-654q0 -111 48 -165t147 -54q200 0 200 219v654h299v-662q0 -119 -38 -208t-107.5 -142t-160.5 -79t-204 -26q-223 0 -355 107.5t-132 308.5zM299 1257v240h266v-240h-266zM705 1257v240h270v-240h-270z" />
<glyph unicode="&#xff;" horiz-adv-x="1150" d="M20 1092h328l242 -623l211 623h313l-604 -1520h-289l219 547zM250 1257v240h266v-240h-266zM655 1257v240h271v-240h-271z" />
<glyph unicode="&#x152;" horiz-adv-x="2048" d="M76 735q0 66 7 133.5t26 144.5t47.5 146t76 133.5t107.5 110.5t145.5 74t186.5 28q35 0 60 -2.5t71 -13t96 -38.5t100 -73v90h967v-264h-680v-309h633v-254h-633v-373h678v-268h-965v94q-44 -68 -120.5 -100t-200.5 -33q-132 -1 -238 47.5t-172.5 126.5t-111 182.5 t-62.5 208t-18 209.5zM387 721q0 -66 8.5 -130t32 -133t60 -120.5t97.5 -85t140 -33.5q105 0 178.5 56.5t73.5 115.5v668q0 21 -5.5 42t-22 46t-43 44t-73.5 31.5t-108 12.5q-154 0 -246 -133t-92 -381z" />
<glyph unicode="&#x153;" horiz-adv-x="1990" d="M66 545q0 127 37 233t107 183.5t177.5 121t241.5 43.5q270 0 409 -161q136 155 363 155q256 0 392.5 -161t127.5 -494h-741q2 -119 63.5 -190.5t177.5 -71.5q147 0 193 112h305q-14 -150 -147 -251t-353 -101q-111 0 -211.5 38.5t-171.5 119.5q-144 -160 -405 -160 q-262 0 -413.5 160.5t-151.5 423.5zM375 545q0 -165 66 -250.5t188 -85.5q118 0 186 87.5t68 244.5q0 166 -68.5 252t-185.5 86q-39 0 -72.5 -8t-68 -31t-58.5 -59t-39.5 -96.5t-15.5 -139.5zM1188 657h428q-5 103 -60 162.5t-153 59.5q-92 0 -146.5 -58.5t-68.5 -163.5z " />
<glyph unicode="&#x178;" horiz-adv-x="1366" d="M35 1475h375l295 -637l280 637h361l-486 -924v-551h-321v551zM438 1630v240h267v-240h-267zM844 1630v240h270v-240h-270z" />
<glyph unicode="&#x2c6;" horiz-adv-x="681" d="M-72 1239l238 301h262l238 -301h-240l-129 166l-131 -166h-238z" />
<glyph unicode="&#x2dc;" horiz-adv-x="681" d="M-84 1253q12 55 26.5 93.5t41.5 78t73.5 60t110.5 20.5q48 0 141 -35q105 -40 133 -40q40 0 57.5 15.5t37.5 70.5h137q-8 -45 -22 -84t-40 -78.5t-69.5 -62.5t-100.5 -23q-26 0 -82.5 12.5t-113.5 34.5q-58 22 -101 22q-76 0 -94 -84h-135z" />
<glyph unicode="&#x2000;" horiz-adv-x="1019" />
<glyph unicode="&#x2001;" horiz-adv-x="2038" />
<glyph unicode="&#x2002;" horiz-adv-x="1019" />
<glyph unicode="&#x2003;" horiz-adv-x="2038" />
<glyph unicode="&#x2004;" horiz-adv-x="679" />
<glyph unicode="&#x2005;" horiz-adv-x="509" />
<glyph unicode="&#x2006;" horiz-adv-x="339" />
<glyph unicode="&#x2007;" horiz-adv-x="339" />
<glyph unicode="&#x2008;" horiz-adv-x="254" />
<glyph unicode="&#x2009;" horiz-adv-x="407" />
<glyph unicode="&#x200a;" horiz-adv-x="113" />
<glyph unicode="&#x2010;" horiz-adv-x="681" d="M43 432v279h582v-279h-582z" />
<glyph unicode="&#x2011;" horiz-adv-x="681" d="M43 432v279h582v-279h-582z" />
<glyph unicode="&#x2012;" horiz-adv-x="681" d="M43 432v279h582v-279h-582z" />
<glyph unicode="&#x2013;" d="M-4 463v223h1147v-223h-1147z" />
<glyph unicode="&#x2014;" horiz-adv-x="2048" d="M242 463v223h1564v-223h-1564z" />
<glyph unicode="&#x2018;" horiz-adv-x="581" d="M137 922v213q0 139 65.5 228.5t221.5 125.5v-105q-53 -16 -88.5 -44t-49 -58.5t-17.5 -51t-3 -38.5h164v-270h-293z" />
<glyph unicode="&#x2019;" horiz-adv-x="581" d="M127 1202v266h295v-213q0 -292 -289 -352v107q30 9 51.5 19.5t50.5 32t44 57.5t12 83h-164z" />
<glyph unicode="&#x201a;" horiz-adv-x="581" d="M143 0v295h299v-240q0 -80 -10.5 -134t-41 -105t-89 -88.5t-151.5 -69.5v113q58 17 81 34q70 52 74 195h-162z" />
<glyph unicode="&#x201c;" horiz-adv-x="1058" d="M145 922v213q0 294 287 354v-105q-167 -57 -158 -192h164v-270h-293zM633 922v213q0 288 287 354v-105q-31 -10 -57.5 -25t-51.5 -38t-38 -56t-9 -73h160v-270h-291z" />
<glyph unicode="&#x201d;" horiz-adv-x="1058" d="M160 1202v266h291v-213q0 -296 -287 -352v107q29 10 50 20t50 31.5t43.5 57.5t11.5 83h-159zM643 1202v266h293v-213q0 -143 -73 -234.5t-212 -117.5v107q154 46 154 192h-162z" />
<glyph unicode="&#x201e;" horiz-adv-x="1058" d="M152 0v295h299v-240q0 -82 -14 -143t-36 -99.5t-63 -69t-78.5 -47.5t-99.5 -38v113q57 17 81 34q68 52 74 195h-163zM612 0v295h299v-240q0 -63 -4.5 -106t-21.5 -93.5t-47.5 -85t-86.5 -65t-135 -47.5v113q25 6 40.5 11.5t39.5 21.5t38 38.5t26 63t14 94.5h-162z" />
<glyph unicode="&#x2022;" horiz-adv-x="716" d="M289 733q0 38 11 74t35 70.5t69.5 55.5t105.5 21q39 0 76.5 -13t70.5 -38t53.5 -69t20.5 -101q0 -94 -63.5 -157.5t-157.5 -63.5q-88 0 -154.5 59t-66.5 162z" />
<glyph unicode="&#x2026;" horiz-adv-x="2048" d="M184 0v307h318v-307h-318zM868 0v307h314v-307h-314zM1550 0v307h314v-307h-314z" />
<glyph unicode="&#x202f;" horiz-adv-x="407" />
<glyph unicode="&#x2039;" horiz-adv-x="681" d="M168 442v242l346 299v-244l-205 -176l205 -174v-244z" />
<glyph unicode="&#x203a;" horiz-adv-x="681" d="M170 145v244l203 174l-203 176v244l344 -299v-242z" />
<glyph unicode="&#x205f;" horiz-adv-x="509" />
<glyph unicode="&#x2122;" horiz-adv-x="2048" d="M199 1290v185h659v-185h-219v-561h-223v561h-217zM918 729v746h319l129 -418l127 418h319v-746h-202v535l-158 -535h-172l-158 535v-535h-204z" />
<glyph unicode="&#x25fc;" horiz-adv-x="1085" d="M0 0v1085h1085v-1085h-1085z" />
<glyph unicode="&#xfb01;" horiz-adv-x="1273" d="M20 874v207h156v62q0 95 16.5 157t58 106t112.5 63.5t180 19.5q67 0 110 -6v-238q-24 4 -80 4q-98 0 -98 -78v-90h189v-207h-189v-874h-295v874h-160zM840 0v1087h293v-1087h-293zM840 1219v266h288v-266h-288z" />
<glyph unicode="&#xfb02;" horiz-adv-x="1273" d="M20 874v207h156v62q0 95 16.5 157t58 106t112.5 63.5t180 19.5q67 0 110 -6v-238q-24 4 -80 4q-98 0 -98 -78v-90h189v-207h-189v-874h-295v874h-160zM840 0v1475h293v-1475h-293z" />
</font>
</defs>
</svg>
