<?xml version="1.0" standalone="no"?>
<!DOCTYPE svg PUBLIC "-//W3C//DTD SVG 1.1//EN" "http://www.w3.org/Graphics/SVG/1.1/DTD/svg11.dtd" >
<svg xmlns="http://www.w3.org/2000/svg" xmlns:xlink="http://www.w3.org/1999/xlink" version="1.1">
<metadata></metadata>
<defs>
<font id="arpa_schulbuchroman" horiz-adv-x="1138" >
<font-face units-per-em="2048" ascent="1638" descent="-410" />
<missing-glyph horiz-adv-x="540" />
<glyph horiz-adv-x="0" />
<glyph horiz-adv-x="682" />
<glyph unicode=" "  horiz-adv-x="540" />
<glyph unicode="&#x09;" horiz-adv-x="540" />
<glyph unicode="&#xa0;" horiz-adv-x="540" />
<glyph unicode="!" horiz-adv-x="585" d="M236 1001v467h219v-467l-56 -643h-108zM238 0v219h211v-219h-211z" />
<glyph unicode="&#x22;" horiz-adv-x="761" d="M74 1468h192l-30 -589h-130zM420 1468h196l-32 -589h-129z" />
<glyph unicode="#" d="M0 438l33 123h227l92 338h-227l33 123h227l119 440h155l-118 -440h213l120 440h154l-119 -440h228l-33 -123h-227l-95 -338h230l-33 -123h-225l-121 -438h-156l119 438h-213l-119 -438h-155l118 438h-227zM418 561h211l92 338h-213z" />
<glyph unicode="$" d="M63 436h191q3 -70 14 -118.5t38 -94t78.5 -71.5t129.5 -33v528q-80 17 -140 37t-115 52.5t-90.5 74.5t-56 103.5t-20.5 138.5q0 50 12 101t42.5 105t76.5 95.5t122 69.5t171 30v133h94v-131q86 -5 158 -29.5t130.5 -70.5t93 -121t38.5 -174h-186q-8 99 -66 163t-168 68 v-469q100 -29 160.5 -50.5t123 -55t95.5 -72t53.5 -95.5t20.5 -132q0 -96 -21.5 -169.5t-71.5 -135.5t-139.5 -101.5t-218.5 -54.5v-195h-96v195q-127 9 -216.5 47.5t-140.5 103t-73.5 145t-22.5 183.5zM283 1069q0 -87 53.5 -143t177.5 -84v454q-119 -6 -175 -70t-56 -157z M610 117q258 13 258 254q0 40 -7 68.5t-31 63t-79 64.5t-141 56v-506z" />
<glyph unicode="%" horiz-adv-x="1820" d="M68 1044q0 146 103 249.5t249 103.5t249 -103.5t103 -249.5t-103 -249t-249 -103t-249 103t-103 249zM207 1044q0 -87 62.5 -148.5t150.5 -61.5t150.5 61.5t62.5 148.5q0 88 -62.5 150.5t-150.5 62.5t-150.5 -62.5t-62.5 -150.5zM451 -39l800 1464h111l-801 -1464h-110z M1044 350q0 146 103.5 249t249.5 103t249 -103t103 -249t-103 -249t-249 -103t-249.5 103t-103.5 249zM1184 350q0 -88 62.5 -149.5t150.5 -61.5t150.5 61.5t62.5 149.5t-62.5 150.5t-150.5 62.5t-150.5 -62.5t-62.5 -150.5z" />
<glyph unicode="&#x26;" horiz-adv-x="1382" d="M92 371q0 147 72 240.5t258 205.5q-154 177 -154 320q0 145 99.5 237t259.5 92q140 0 234 -80.5t95 -218.5q0 -40 -3.5 -68.5t-18 -68.5t-41.5 -75.5t-76.5 -80.5t-120.5 -92l260 -311q43 98 62 231h182q-23 -223 -127 -385l264 -317h-250l-131 162q-29 -31 -40.5 -42.5 t-45.5 -41.5t-62.5 -44.5t-70.5 -33.5t-93 -27t-109 -8q-98 0 -177 26t-127.5 67.5t-80.5 96.5t-45 108.5t-13 107.5zM289 371q0 -101 74.5 -168.5t185.5 -67.5q186 0 303 156l-324 395q-84 -54 -131 -94t-77.5 -96t-30.5 -125zM457 1155q0 -53 26.5 -102.5t112.5 -147.5 q2 1 17.5 12t25.5 18t29 22.5t31.5 29t28.5 34t25.5 40t16 44.5t6.5 50q0 23 -7 47t-22 49.5t-47 41.5t-75 16q-77 0 -122.5 -41t-45.5 -113z" />
<glyph unicode="'" horiz-adv-x="405" d="M147 1468h195l-35 -589h-125z" />
<glyph unicode="(" horiz-adv-x="681" d="M135 526q0 169 25.5 297.5t100 289.5t216.5 380h129q-115 -221 -148 -299q-102 -237 -120 -510q-4 -70 -4 -145q0 -250 54 -447t220 -510h-127q-173 244 -259.5 469.5t-86.5 474.5z" />
<glyph unicode=")" horiz-adv-x="681" d="M61 1493h136q42 -67 56 -89t51.5 -83t51 -87.5t43.5 -83t42 -90t33.5 -88t30 -97.5t19.5 -98.5t15 -110.5t4 -115q0 -268 -73.5 -470.5t-268.5 -498.5h-138q127 245 164 334q87 209 105 448q6 81 6 175q0 187 -32.5 345.5t-87.5 289.5t-157 319z" />
<glyph unicode="*" horiz-adv-x="796" d="M74 1204l41 117l215 -78v227h125v-225l215 76l43 -117l-219 -69l135 -191l-103 -74l-131 193l-135 -193l-104 74l137 191z" />
<glyph unicode="+" horiz-adv-x="1196" d="M90 434v182h432v435h183v-435h432v-182h-432v-434h-183v434h-432z" />
<glyph unicode="," horiz-adv-x="569" d="M162 0v229h229v-209q0 -296 -229 -329v96q116 22 119 213h-119z" />
<glyph unicode="-" horiz-adv-x="681" d="M80 471v199h512v-199h-512z" />
<glyph unicode="." horiz-adv-x="569" d="M168 0v229h223v-229h-223z" />
<glyph unicode="/" horiz-adv-x="569" d="M-16 0l481 1477h164l-482 -1477h-163z" />
<glyph unicode="0" d="M63 690q0 363 129 554.5t365 191.5t367 -175.5t131 -543.5q0 -197 -37.5 -344.5t-106 -236.5t-157.5 -132t-199 -43q-230 0 -361 179.5t-131 549.5zM272 684q0 -549 283 -549q96 0 158 53t97.5 182.5t35.5 340.5q0 128 -13 224t-36 158.5t-58.5 101t-77.5 54t-96 15.5 q-68 0 -119 -28.5t-91.5 -93.5t-61.5 -180t-21 -278z" />
<glyph unicode="1" d="M188 1012v147q68 4 110.5 9.5t86.5 17t70.5 29t51.5 47t41.5 70t29.5 98.5h153v-1430h-205v1012h-338z" />
<glyph unicode="2" d="M63 0q3 77 13.5 137.5t33.5 122.5t60 113.5t94.5 102.5t136.5 97l183 107q64 37 105 66.5t79 68.5t56 84.5t18 99.5q0 51 -15 97t-45.5 84.5t-83 61t-120.5 22.5q-62 0 -109 -15.5t-87.5 -52t-63 -104.5t-25.5 -166h-197q4 261 130 387.5t352 126.5q101 0 187 -27.5 t151 -80.5t102 -136.5t37 -189.5q0 -140 -78.5 -245.5t-284.5 -221.5l-135 -76q-126 -70 -185.5 -132.5t-84.5 -148.5h762v-182h-986z" />
<glyph unicode="3" d="M49 440h203q11 -152 75.5 -228.5t217.5 -76.5q126 0 211.5 68.5t85.5 197.5q0 42 -5 73t-24.5 68.5t-54 61t-98.5 39.5t-154 16q-46 0 -66 -2v166q27 -4 78 -4q279 0 279 225q0 89 -60.5 154.5t-183.5 65.5q-61 0 -107 -13.5t-85 -46t-61 -92t-26 -145.5h-188 q0 76 14 143t47.5 128t84.5 104.5t129.5 69.5t177.5 26q215 0 336.5 -98.5t121.5 -284.5q0 -209 -182 -293q236 -76 236 -338q0 -93 -31 -174t-91.5 -147t-162 -104t-231.5 -38q-100 0 -181 24.5t-137 68t-93.5 104t-55.5 131t-19 151.5z" />
<glyph unicode="4" d="M51 344v186l641 906h174v-924h205v-168h-205v-344h-194v344h-621zM223 512h449v643z" />
<glyph unicode="5" d="M63 369h203q12 -116 85 -176t194 -60q134 0 216.5 83t82.5 235q0 135 -82.5 221t-214.5 86q-168 0 -262 -131l-168 10l106 776h752v-184h-606l-60 -387q66 50 128.5 69t148.5 19q89 0 172.5 -30.5t149.5 -87t105.5 -143.5t39.5 -192q0 -148 -59 -263t-179 -183t-287 -68 q-87 0 -165 24.5t-142.5 72.5t-106.5 127.5t-51 181.5z" />
<glyph unicode="6" d="M76 633q0 395 132.5 602t387.5 207q92 0 166.5 -22.5t122.5 -59.5t80.5 -87.5t47 -102.5t15.5 -109h-192q-39 213 -236 213q-297 0 -328 -522q60 85 150.5 127.5t189.5 42.5q63 0 123.5 -14.5t120.5 -49t104.5 -85.5t72.5 -131.5t28 -180.5q0 -54 -11 -109t-34 -112 t-62.5 -106t-92 -87.5t-127.5 -61t-165 -22.5q-77 0 -145.5 20t-133.5 68.5t-111.5 123t-74.5 192t-28 266.5zM295 446q0 -44 8.5 -85.5t29.5 -83.5t52.5 -73.5t83 -51t115.5 -19.5q118 0 195 78.5t77 232.5q0 141 -69.5 222.5t-211.5 81.5q-123 0 -201.5 -79t-78.5 -223z " />
<glyph unicode="7" d="M74 1219v194h999v-168q-182 -177 -355.5 -528t-230.5 -717h-213q28 185 96 384t194 423.5t290 411.5h-780z" />
<glyph unicode="8" d="M63 401q0 128 63.5 220.5t178.5 144.5q-41 19 -72.5 41t-59.5 55t-43 80.5t-15 108.5q0 55 14 107.5t47.5 104t83 90t127.5 62t174 23.5q64 0 125.5 -12.5t119.5 -40.5t101.5 -69t70 -104t26.5 -139q0 -43 -6 -76.5t-23 -75t-56.5 -80.5t-99.5 -73q29 -15 41.5 -21.5 t42 -26t45.5 -35.5t39 -45.5t35 -60t21.5 -74.5t9.5 -95q2 -93 -31 -174.5t-94 -143t-156 -97.5t-211 -36q-79 0 -151 16t-135.5 51.5t-110.5 86t-74 124.5t-27 164zM274 401q0 -33 6.5 -66t26 -70.5t50.5 -65.5t84.5 -47t123.5 -19q58 0 107.5 15t89 45t62 82t22.5 120 q0 125 -76 201t-215 76q-36 0 -72 -7t-74.5 -26t-67.5 -48t-48 -78t-19 -112zM315 1047q0 -83 60.5 -147t181.5 -64q103 0 173.5 55.5t70.5 163.5q0 24 -5 48.5t-21.5 55t-42.5 53.5t-72.5 38.5t-106.5 15.5q-103 0 -170.5 -53t-67.5 -166z" />
<glyph unicode="9" d="M72 942q0 70 15 137.5t51 133t88.5 115t134.5 80t182 30.5q114 0 203.5 -38t157 -117t104 -211.5t36.5 -311.5q0 -131 -18 -246.5t-58 -218.5t-99.5 -176.5t-148.5 -116.5t-200 -43q-200 0 -313.5 107t-116.5 278h197q6 -99 63.5 -160t165.5 -61q37 0 66.5 6.5t65 24.5 t64 54.5t55.5 92t48 143t35 201.5q-18 -26 -36 -46.5t-47.5 -43.5t-62.5 -38.5t-81.5 -25.5t-104.5 -10q-65 0 -126 14.5t-120 49.5t-103 86.5t-70.5 131.5t-26.5 179zM272 948q0 -42 4 -76t20.5 -77.5t44.5 -73t81 -50t125 -20.5q40 0 76 8t73 29t64 54t44 88t17 126 q0 150 -74.5 229t-197.5 79q-124 0 -200.5 -84.5t-76.5 -231.5z" />
<glyph unicode=":" horiz-adv-x="585" d="M227 0v229h224v-229h-224zM227 827v228h224v-228h-224z" />
<glyph unicode=";" horiz-adv-x="585" d="M225 0v229h230v-209q0 -296 -230 -329v96q116 22 119 213h-119zM227 827v228h226v-228h-226z" />
<glyph unicode="&#x3c;" horiz-adv-x="1196" d="M29 436v178l1167 459v-194l-938 -355l938 -350v-194z" />
<glyph unicode="=" horiz-adv-x="1196" d="M90 215v184h1047v-184h-1047zM90 651v183h1047v-183h-1047z" />
<glyph unicode="&#x3e;" horiz-adv-x="1196" d="M29 -20v194l938 350l-938 355v194l1167 -459v-180z" />
<glyph unicode="?" horiz-adv-x="1155" d="M152 1010q0 215 122 347t338 132q194 0 320.5 -111t126.5 -295q0 -92 -33 -150t-143 -171l-103 -105q-51 -51 -71.5 -111t-20.5 -163h-190q0 146 33 227t147 195l78 78l10 10l13.5 13.5t13.5 15t15 19.5t13.5 21t13 25.5t10 27.5t7.5 32.5t2 35.5q0 112 -61.5 174 t-184.5 62q-132 0 -194 -76t-70 -233h-192zM494 0v219h211v-219h-211z" />
<glyph unicode="@" horiz-adv-x="2066" d="M221 705q0 106 27 207t77.5 190.5t127 164.5t171.5 129t216 84.5t256 30.5q338 0 543.5 -167.5t205.5 -454.5q0 -142 -59 -269t-162 -204.5t-223 -77.5q-92 0 -142.5 45.5t-50.5 116.5q0 24 6 45q-94 -207 -299 -207q-119 0 -197.5 88t-78.5 231q0 82 30.5 170t83.5 162 t132.5 122t167.5 48q90 0 158.5 -50t76.5 -144l49 161h152l-131 -438q-1 -2 -8.5 -25.5t-10.5 -35t-6.5 -32.5t-3.5 -40q0 -86 88 -86q111 0 201 121t90 307q0 231 -164 361.5t-430 130.5q-181 0 -325.5 -54t-236.5 -148t-141 -219t-49 -270q0 -94 25 -182.5t81 -168.5 t137 -139.5t201 -94.5t265 -35q61 0 110.5 5t126 22t161.5 59t171 106l68 -92q-106 -89 -279.5 -155t-379.5 -66q-182 0 -336.5 55.5t-262.5 153.5t-168.5 237t-60.5 302zM811 651q0 -96 43.5 -145t106.5 -49q64 0 119.5 48t89 118t52.5 142.5t19 129.5q0 23 -8 48.5 t-24.5 50.5t-47.5 41t-71 16q-74 0 -140 -65t-102.5 -157t-36.5 -178z" />
<glyph unicode="A" horiz-adv-x="1382" d="M33 0l551 1468h241l531 -1468h-236l-139 422h-575l-152 -422h-221zM465 596h448l-219 639z" />
<glyph unicode="B" horiz-adv-x="1382" d="M154 0v1468h612q223 0 343 -95t120 -269q0 -106 -44.5 -182t-150.5 -131q136 -49 199 -136.5t63 -224.5q0 -191 -138 -310.5t-378 -119.5h-626zM360 182h420q143 0 223 67t80 193q0 117 -79.5 177.5t-251.5 60.5h-392v-498zM360 854h363q153 0 223 54.5t70 168.5 q0 111 -67.5 162t-227.5 51h-361v-436z" />
<glyph unicode="C" horiz-adv-x="1478" d="M90 745q0 163 46 302t132 241.5t216.5 160.5t291.5 58q163 0 294.5 -57t214.5 -168t97 -260h-208q-75 299 -400 299q-214 0 -339.5 -151.5t-125.5 -452.5q0 -145 35.5 -256t99.5 -178t146.5 -100t181.5 -33q333 0 412 385h211q-13 -124 -63.5 -229.5t-132 -182 t-196 -119.5t-249.5 -43q-144 0 -264 49.5t-210 144.5t-140 246t-50 344z" />
<glyph unicode="D" horiz-adv-x="1478" d="M164 0v1468h596q283 0 452.5 -185t169.5 -523q0 -228 -73 -399t-213.5 -266t-333.5 -95h-598zM377 182h346q206 0 323 140t117 405q0 289 -112.5 425t-329.5 136h-344v-1106z" />
<glyph unicode="E" horiz-adv-x="1366" d="M172 0v1468h1073v-190h-862v-426h797v-182h-797v-484h881v-186h-1092z" />
<glyph unicode="F" horiz-adv-x="1251" d="M172 0v1468h1022v-190h-807v-430h711v-186h-711v-662h-215z" />
<glyph unicode="G" horiz-adv-x="1593" d="M96 715q0 231 85 410.5t244.5 280.5t369.5 101q116 0 212.5 -24t166.5 -66.5t121.5 -103.5t82 -133.5t43.5 -157.5h-211q-33 150 -142 224.5t-280 74.5q-101 0 -186.5 -38.5t-149 -112t-99.5 -188t-36 -259.5q0 -296 127 -438t351 -142q66 0 127 14t119.5 48.5t102 86.5 t71 133.5t30.5 184.5h-442v176h641q0 -825 -670 -825q-150 0 -273 47.5t-214 139.5t-141 236.5t-50 330.5z" />
<glyph unicode="H" horiz-adv-x="1478" d="M160 0v1468h217v-600h737v600h215v-1468h-215v682h-737v-682h-217z" />
<glyph unicode="I" horiz-adv-x="569" d="M176 0v1468h217v-1468h-217z" />
<glyph unicode="J" horiz-adv-x="1042" d="M37 391v94h201v-94q0 -134 53.5 -192t161.5 -58q86 0 133 28t70.5 102t23.5 212v985h213v-1028q0 -249 -113.5 -364t-333.5 -115q-409 0 -409 430z" />
<glyph unicode="K" horiz-adv-x="1382" d="M156 0v1468h211v-673l696 673h291l-729 -690l747 -778h-293l-712 748v-748h-211z" />
<glyph unicode="L" horiz-adv-x="1155" d="M156 0v1468h215v-1282h741v-186h-956z" />
<glyph unicode="M" horiz-adv-x="1705" d="M152 0v1468h254l454 -725l463 725h238v-1468h-203v1198l-440 -694h-125l-437 694v-1198h-204z" />
<glyph unicode="N" horiz-adv-x="1478" d="M156 0v1468h247l719 -1167v1167h205v-1468h-235l-734 1169v-1169h-202z" />
<glyph unicode="O" horiz-adv-x="1593" d="M82 729q0 185 54.5 334.5t150.5 246.5t225.5 149t280.5 52q155 0 283 -43.5t226.5 -132.5t153.5 -236t55 -341q0 -238 -84.5 -418t-248.5 -281.5t-387 -101.5q-157 0 -286.5 50.5t-224 146.5t-146.5 243t-52 332zM303 719q0 -278 133 -425t375 -147q221 0 352 157 t131 452q0 136 -38.5 245t-105.5 178t-155.5 105.5t-191.5 36.5q-227 0 -363.5 -158.5t-136.5 -443.5z" />
<glyph unicode="P" horiz-adv-x="1366" d="M172 0v1468h659q203 0 323 -110t120 -316q0 -199 -117 -316.5t-330 -117.5h-440v-608h-215zM387 788h381q149 0 220 63t71 189t-70 187t-221 61h-381v-500z" />
<glyph unicode="Q" horiz-adv-x="1593" d="M82 729q0 358 195.5 570t515.5 212q154 0 282.5 -45.5t227 -135.5t153.5 -236t55 -334q0 -192 -56.5 -345.5t-147.5 -244.5l196 -158l-108 -127l-219 170q-178 -98 -388 -98q-119 0 -223 28t-193.5 89t-153.5 150t-100 218t-36 287zM303 719q0 -268 132 -420t376 -152 q138 0 205 41l-160 129l109 129l186 -149q66 80 104.5 197.5t38.5 261.5q0 268 -137 416.5t-354 148.5q-110 0 -199 -34t-157.5 -104.5t-106 -188t-37.5 -275.5z" />
<glyph unicode="R" horiz-adv-x="1478" d="M178 0v1468h686q245 0 364.5 -104t119.5 -293q0 -104 -41 -190.5t-111 -142t-159.5 -85.5t-188.5 -30h-66l592 -623h-272l-580 623h-131v-623h-213zM391 801h445q154 0 224 59t70 189q0 239 -272 239h-467v-487z" />
<glyph unicode="S" horiz-adv-x="1366" d="M96 471h203q18 -334 395 -334q176 0 273.5 66t97.5 180q0 71 -24.5 113.5t-90 74.5t-190.5 60l-205 45q-219 47 -316.5 132.5t-97.5 246.5q0 92 33.5 173t97.5 143.5t167.5 99t234.5 36.5q93 0 175.5 -17.5t152.5 -54.5t120 -91.5t78.5 -132.5t28.5 -173h-201 q-8 66 -27 113t-58 88.5t-108.5 62.5t-168.5 21q-160 0 -240 -67t-80 -171q0 -36 6 -62t24.5 -47t40.5 -36t65.5 -30t87.5 -26.5t118 -27.5l213 -47q187 -41 280 -134.5t93 -260.5q0 -206 -151.5 -331.5t-438.5 -125.5q-272 0 -430 136t-158 378z" />
<glyph unicode="T" horiz-adv-x="1251" d="M33 1282v186h1192v-186h-488v-1282h-217v1282h-487z" />
<glyph unicode="U" horiz-adv-x="1478" d="M168 600v868h219v-907q0 -208 90.5 -311t255.5 -103q187 0 282 97.5t95 316.5v907h219v-868q0 -333 -148 -486t-433 -153q-283 0 -431.5 154.5t-148.5 484.5z" />
<glyph unicode="V" horiz-adv-x="1366" d="M51 1468h236l407 -1232l404 1232h235l-528 -1468h-223z" />
<glyph unicode="W" horiz-adv-x="1933" d="M37 1468h231l215 -931l56 -246l67 248l248 929h231l258 -962l58 -215l49 217l223 960h232l-389 -1468h-222l-270 997l-53 211l-56 -211l-270 -997h-219z" />
<glyph unicode="X" horiz-adv-x="1366" d="M41 0l518 754l-485 714h264l358 -548l359 548h254l-488 -712l512 -756h-264l-381 590l-391 -590h-256z" />
<glyph unicode="Y" horiz-adv-x="1366" d="M41 1468h250l407 -694l404 694h250l-547 -882v-586h-215v586z" />
<glyph unicode="Z" horiz-adv-x="1251" d="M47 0v178l883 1104h-824v186h1096v-180l-885 -1102h887v-186h-1157z" />
<glyph unicode="[" horiz-adv-x="585" d="M129 -401v1882h399v-158h-215v-1569h215v-155h-399z" />
<glyph unicode="\" horiz-adv-x="569" d="M-76 1477h168l572 -1477h-168z" />
<glyph unicode="]" horiz-adv-x="585" d="M47 -246h215v1571h-215v156h399v-1882h-399v155z" />
<glyph unicode="^" horiz-adv-x="993" d="M123 604l354 864h162l356 -864h-176l-260 647l-260 -647h-176z" />
<glyph unicode="_" d="M0 -156h1139v-100h-1139v100z" />
<glyph unicode="`" horiz-adv-x="681" d="M-55 1505h237l183 -288h-146z" />
<glyph unicode="a" horiz-adv-x="1155" d="M57 512q0 169 56 301t161.5 206.5t243.5 74.5q105 0 181 -39.5t143 -126.5v145h180v-1073h-178v150q-67 -98 -148.5 -143.5t-195.5 -45.5q-79 0 -156 35t-142 100.5t-105 174t-40 241.5zM262 524q0 -196 81 -294.5t216 -98.5q123 0 202 102t79 302q0 184 -76 286.5 t-207 102.5q-135 0 -215 -105.5t-80 -294.5z" />
<glyph unicode="b" horiz-adv-x="1155" d="M119 0v1475h190v-533q22 29 42.5 50t59.5 50t94.5 44.5t123.5 15.5q94 0 174 -33.5t142 -99t97 -171.5t35 -243q0 -143 -36 -256.5t-99.5 -185.5t-146.5 -110t-179 -38q-92 0 -164.5 34.5t-150.5 137.5v-137h-182zM299 545q0 -408 295 -408q65 0 115.5 25t81.5 64.5 t51 94.5t27.5 109.5t7.5 114.5q0 195 -77.5 289t-201.5 94q-148 0 -223.5 -101.5t-75.5 -281.5z" />
<glyph unicode="c" horiz-adv-x="1040" d="M61 508q0 265 131.5 430.5t358.5 165.5q64 0 116.5 -8t109.5 -33.5t98.5 -67.5t73 -115t42.5 -171h-192q-34 223 -248 223q-77 0 -133.5 -33.5t-88.5 -94t-46.5 -134t-14.5 -162.5q0 -56 7.5 -107t27 -101t49.5 -86t78.5 -58.5t110.5 -22.5q208 0 258 248h192 q-29 -205 -149 -309.5t-316 -104.5q-90 0 -171.5 32t-148 95.5t-106 170t-39.5 243.5z" />
<glyph unicode="d" horiz-adv-x="1155" d="M57 512q0 169 56 301t161.5 206.5t243.5 74.5q106 0 176 -36t137 -122v539h191v-1475h-178v150q-67 -98 -148.5 -143.5t-195.5 -45.5q-79 0 -156 35t-142 100.5t-105 174t-40 241.5zM262 524q0 -196 81 -294.5t216 -98.5q123 0 202 102t79 302q0 184 -76 286.5 t-207 102.5q-135 0 -215 -105.5t-80 -294.5z" />
<glyph unicode="e" d="M68 516q0 258 137.5 421t369.5 163q227 0 357 -160q123 -152 123 -434v-31h-781q12 -346 293 -346q112 0 185 51t96 154h192q-23 -178 -149 -275.5t-309 -97.5q-106 0 -197 34t-163 100t-113 174t-41 247zM281 625h573q-24 305 -287 305q-50 0 -98 -17.5t-89.5 -53 t-68 -96t-30.5 -138.5z" />
<glyph unicode="f" horiz-adv-x="585" d="M27 918v151h149v154q0 139 68 203.5t225 64.5q30 0 80 -4v-174q-20 2 -66 2q-65 0 -88.5 -27.5t-23.5 -109.5v-109h180v-151h-180v-918h-195v918h-149z" />
<glyph unicode="g" horiz-adv-x="1155" d="M61 522q0 132 35.5 241t97 180.5t143.5 111t175 39.5q102 0 180.5 -39t143.5 -127v137h180v-983q0 -99 -14 -177.5t-49 -146.5t-90.5 -113.5t-140.5 -71t-198 -26.5q-186 0 -301 80t-129 242h201q12 -82 66.5 -122t168.5 -40q174 0 236.5 88t62.5 318v39q-38 -54 -75 -86 t-101.5 -54t-152.5 -22q-61 0 -117.5 13.5t-117 50t-104 94t-72 154t-28.5 220.5zM262 510q0 -77 15 -140.5t45.5 -114.5t83 -79.5t122.5 -28.5q137 0 221.5 100t84.5 296q0 186 -77 283.5t-206 97.5q-289 0 -289 -414z" />
<glyph unicode="h" horiz-adv-x="1155" d="M131 0v1475h195v-545q70 88 144.5 129t184.5 41q183 0 275 -99.5t92 -312.5v-688h-201v674q0 142 -51.5 198t-157.5 56q-120 0 -203 -81t-83 -226v-621h-195z" />
<glyph unicode="i" horiz-adv-x="471" d="M131 0v1071h201v-1071h-201zM131 1260v210h201v-210h-201z" />
<glyph unicode="j" horiz-adv-x="471" d="M-33 -262q14 -2 37 -2q65 0 97 28.5t32 100.5v1204h195v-1223q0 -72 -12 -120.5t-42.5 -86.5t-87 -55.5t-141.5 -17.5q-37 0 -78 6v166zM133 1253v215h195v-215h-195z" />
<glyph unicode="k" horiz-adv-x="1040" d="M129 0v1468h186v-843l449 448h248l-484 -473l504 -600h-246l-471 565v-565h-186z" />
<glyph unicode="l" horiz-adv-x="534" d="M137 213v1255h195v-1232q0 -49 18.5 -69t63.5 -20q37 0 61 3v-152q-72 -14 -135 -14q-100 0 -151.5 61t-51.5 168z" />
<glyph unicode="m" horiz-adv-x="1722" d="M131 0v1073h193v-151q68 89 144 132.5t173 43.5q102 0 172.5 -40.5t114.5 -131.5q115 172 325 172q336 0 336 -383v-715h-200v715q0 106 -45 157.5t-138 51.5q-47 0 -89.5 -16t-79 -48t-58 -87.5t-21.5 -127.5v-645h-198v692q0 126 -41.5 180t-132.5 54q-47 0 -90.5 -16 t-83 -49t-63 -92.5t-23.5 -137.5v-631h-195z" />
<glyph unicode="n" horiz-adv-x="1155" d="M131 0v1073h186v-151q135 176 349 176q175 0 265.5 -96t90.5 -310v-692h-199v674q0 124 -50.5 188t-149.5 64q-123 0 -210 -79.5t-87 -219.5v-627h-195z" />
<glyph unicode="o" horiz-adv-x="1155" d="M59 516q0 125 33.5 231.5t96.5 187t161.5 126t220.5 45.5q101 0 189.5 -33.5t159.5 -98.5t112 -173t41 -246q0 -97 -17 -182.5t-56.5 -162t-98.5 -131t-148 -86.5t-200 -32q-79 0 -150 19.5t-134.5 63t-109.5 107t-73 157t-27 208.5zM260 518q0 -205 84.5 -297t220.5 -92 q81 0 141 31.5t95.5 89.5t52 132.5t16.5 168.5q0 201 -80.5 293t-222.5 92q-139 0 -223 -102.5t-84 -315.5z" />
<glyph unicode="p" horiz-adv-x="1155" d="M119 -426v1497h188v-147q129 176 332 176q91 0 170 -36t139 -103.5t94.5 -171t34.5 -230.5q0 -281 -121.5 -438.5t-332.5 -157.5q-98 0 -171.5 37.5t-138.5 122.5v-549h-194zM305 502q0 -183 76 -276t211 -93q40 0 77 10t76 38.5t68 72.5t47.5 118.5t18.5 170.5 q0 187 -75.5 286t-211.5 99q-131 0 -209 -106t-78 -320z" />
<glyph unicode="q" horiz-adv-x="1155" d="M59 510q0 257 129 423.5t328 166.5q207 0 320 -178v151h186v-1499h-197v551q-43 -73 -123 -116.5t-198 -43.5q-85 0 -163 34t-142 98.5t-102 171.5t-38 241zM262 522q0 -187 73.5 -288t207.5 -101q291 0 291 412q0 105 -23.5 181.5t-65 118.5t-92 61.5t-112.5 19.5 q-124 0 -201.5 -105t-77.5 -299z" />
<glyph unicode="r" horiz-adv-x="698" d="M135 0v1073h184v-184q121 209 299 209q40 0 54 -4v-205q-35 6 -62 6q-120 0 -199 -77t-79 -216v-602h-197z" />
<glyph unicode="s" horiz-adv-x="1040" d="M66 338h190q8 -107 73 -162t201 -55q111 0 176.5 45t65.5 123q0 57 -40 87.5t-167 61.5l-147 37q-167 41 -244.5 106.5t-77.5 178.5q0 160 116.5 251t295.5 91q197 0 308 -91.5t114 -246.5h-187q-3 81 -64 127.5t-183 46.5q-95 0 -149 -35.5t-54 -99.5q0 -53 40.5 -88 t143.5 -60l127 -30q209 -51 286 -118t77 -196q0 -155 -116.5 -253.5t-330.5 -98.5q-97 0 -173.5 18.5t-139.5 60.5t-99.5 117.5t-41.5 182.5z" />
<glyph unicode="t" horiz-adv-x="569" d="M31 918v155h145v299h197v-299h172v-155h-172v-918h-197v918h-145z" />
<glyph unicode="u" horiz-adv-x="1134" d="M129 377v696h197v-674q0 -122 67.5 -190t175.5 -68q102 0 173 70t71 188v674h193v-678q0 -199 -121.5 -311.5t-325.5 -112.5q-200 0 -315 105.5t-115 300.5z" />
<glyph unicode="v" horiz-adv-x="1040" d="M12 1073h226l278 -862l289 862h211l-402 -1073h-206z" />
<glyph unicode="w" horiz-adv-x="1495" d="M18 1073h211l203 -835l201 835h213l205 -831l213 831h196l-313 -1073h-203l-211 825l-205 -825h-202z" />
<glyph unicode="x" horiz-adv-x="1040" d="M12 0l377 549l-356 524h248l237 -368l240 368h237l-362 -522l377 -551h-248l-256 391l-248 -391h-246z" />
<glyph unicode="y" horiz-adv-x="1040" d="M20 1073h222l290 -721l269 721h213l-631 -1499h-197l242 543z" />
<glyph unicode="z" horiz-adv-x="1024" d="M49 0v152l625 749h-580v172h840v-160l-621 -741h639v-172h-903z" />
<glyph unicode="{" horiz-adv-x="700" d="M-37 483v115q63 8 108 25t82 50t55.5 90t18.5 138v178q0 78 10.5 136t38.5 109.5t74 85.5t119 56t172 29v-121q-53 -5 -93 -21.5t-74.5 -51t-52.5 -96t-18 -148.5v-129q0 -102 -19 -173.5t-58.5 -115t-89.5 -65.5t-121 -33q69 -11 119.5 -34.5t90 -67.5t59 -115 t19.5 -170v-164q0 -249 238 -285v-123q-92 8 -162.5 30t-129.5 64t-90.5 114.5t-31.5 172.5v219q0 44 -5.5 80t-22.5 74.5t-45 66t-76.5 49.5t-114.5 31z" />
<glyph unicode="|" horiz-adv-x="538" d="M137 0v1491h187v-1491h-187z" />
<glyph unicode="}" horiz-adv-x="700" d="M43 -295q30 4 57.5 12t61.5 28.5t58.5 50t41.5 80t17 114.5v164q0 42 2 73.5t8.5 71t18.5 68.5t33.5 60t51 52t73.5 38t99 24q-67 9 -115.5 30t-89 63t-61 115.5t-20.5 178.5v129q0 146 -50 224.5t-186 92.5v121q217 -15 314.5 -111.5t97.5 -304.5v-178 q0 -65 10.5 -111.5t38 -87.5t81 -67t134.5 -37v-115q-55 -7 -97.5 -22t-82.5 -47t-62 -90.5t-22 -141.5v-219q0 -95 -29.5 -165.5t-85.5 -114.5t-129 -68t-168 -33v123z" />
<glyph unicode="~" horiz-adv-x="1196" d="M16 317q69 383 316 383q81 0 170 -34l225 -86q110 -43 170 -43q68 0 118.5 52t69.5 144h125q-34 -182 -114 -285.5t-209 -103.5q-35 0 -77 11.5t-134 45.5l-207 78q-83 31 -143 31q-65 0 -107 -40t-78 -153h-125z" />
<glyph unicode="&#xa1;" horiz-adv-x="681" d="M231 72l56 643h108l56 -643v-469h-220v469zM231 854v219h218v-219h-218z" />
<glyph unicode="&#xa2;" d="M100 522q0 169 56.5 299t171 206.5t272.5 76.5q52 0 94 -10l54 184h83l-55 -203q36 -15 63 -29t64.5 -44.5t64 -67t49 -96.5t30.5 -133h-185q-3 23 -9.5 45t-20 53t-41 56.5t-64.5 39.5l-213 -762q40 -12 76 -12q44 0 77.5 8.5t71 32.5t69.5 77t56 134h191 q-87 -420 -484 -420q-63 0 -106 14l-64 -211h-88l70 236q-283 131 -283 526zM297 524q0 -247 137 -352l213 754q-30 6 -63 6q-121 0 -204 -113t-83 -295z" />
<glyph unicode="&#xa3;" d="M57 649v107h152q-100 162 -100 311q0 77 31.5 147.5t91 127t155 90.5t213.5 34q71 0 132.5 -11.5t122.5 -43.5t104 -82.5t70.5 -135t29.5 -194.5h-197q-2 143 -67 220.5t-209 78.5q-117 2 -195 -61.5t-78 -179.5q0 -48 22 -104t95 -197h322v-107h-277q17 -117 17 -125 q0 -95 -56 -188t-186 -195q1 1 17.5 8.5t25 11t28 12t34 13.5t36 11.5t39.5 10.5t40 6.5t42 2.5q49 0 186 -37q116 -33 148 -33q41 0 77 14.5t89 51.5l82 -147q-137 -103 -263 -103q-61 0 -204 47q-131 45 -217 45q-43 0 -84 -10t-62.5 -19.5t-55 -28t-40.5 -22.5l-102 152 q247 163 247 369q0 65 -41 153h-215z" />
<glyph unicode="&#xa5;" d="M-29 1409h240l350 -670l350 670h238l-258 -448h168v-138h-246l-125 -217h338v-135h-364v-471h-203v471h-359v135h332l-127 217h-252v138h176z" />
<glyph unicode="&#xa7;" d="M74 602q0 181 211 309q-97 77 -97 213q0 47 11 93t38.5 92.5t68.5 81.5t106 57t145 22q83 0 149.5 -20t119.5 -63t83.5 -116.5t34.5 -174.5h-186q-8 105 -54 159t-141 54q-81 0 -132.5 -39t-51.5 -119q0 -63 31.5 -96t128.5 -90l276 -162q103 -60 167.5 -149.5 t64.5 -178.5q0 -43 -6.5 -76t-27 -74t-64 -84.5t-111.5 -90.5q114 -102 114 -236q0 -61 -24.5 -120t-71 -109t-124 -80.5t-173.5 -30.5q-375 0 -399 385h190q8 -107 50.5 -163t148.5 -56q205 0 205 162q0 56 -36 95.5t-147 111.5l-256 167q-124 82 -182.5 153t-58.5 173z M260 639q0 -108 109 -176l360 -230q40 23 65.5 44.5t45.5 63t20 95.5q0 59 -35 105t-141 110l-293 176q-65 -35 -98 -76t-33 -112z" />
<glyph unicode="&#xa8;" horiz-adv-x="681" d="M-41 1239v213h197v-213h-197zM299 1239v213h197v-213h-197z" />
<glyph unicode="&#xa9;" horiz-adv-x="1509" d="M20 737q0 135 41.5 253.5t113.5 204.5t165.5 148.5t200 93.5t215.5 31q98 0 199 -27t197.5 -86t171.5 -142.5t121 -207t46 -268.5q0 -167 -63.5 -308.5t-167.5 -233.5t-235 -143.5t-269 -51.5q-104 0 -207.5 29.5t-198.5 90.5t-168.5 146.5t-117.5 207.5t-44 263z M129 737q0 -86 23 -173t73.5 -170t122.5 -147.5t177.5 -103.5t230.5 -39q83 0 168 23.5t167 74.5t145.5 123t102.5 179t39 233q0 83 -23 169t-73 169t-121 147.5t-176 104t-229 39.5q-69 0 -141 -17t-142.5 -50t-132 -86.5t-109 -121t-75 -159t-27.5 -195.5zM373 741 q0 54 10 108t37 113.5t68 104.5t110.5 74.5t157.5 29.5q46 0 88.5 -7t90 -27.5t83 -53t62.5 -87.5t34 -126h-131q-12 78 -64 128.5t-149 50.5q-112 0 -178 -85t-66 -219q0 -64 15.5 -119.5t46 -100t80 -70t112.5 -25.5q30 0 55 5t56 20.5t56 51t40 89.5h129 q-22 -141 -117.5 -215t-224.5 -74q-95 0 -172.5 36.5t-126.5 97.5t-75.5 138t-26.5 162z" />
<glyph unicode="&#xaa;" d="M78 283q0 139 85.5 225.5t262.5 109.5l260 33q22 2 107 19v100q0 26 -4 46t-19 44t-40.5 39.5t-71.5 26t-109 10.5q-46 0 -81 -7.5t-70 -26.5t-57 -59t-28 -100h-182q3 173 109.5 265t314.5 92q199 0 313.5 -77t114.5 -226v-600q0 -152 16 -197h-180q-22 52 -22 139 q-21 -28 -50.5 -54t-75.5 -55.5t-112 -47.5t-141 -19q-89 0 -164.5 33.5t-125.5 108t-50 178.5zM281 289q0 -73 49.5 -118.5t134.5 -45.5q56 0 110.5 15.5t103.5 47t79 87.5t30 128v119q-77 -20 -180 -33l-102 -14q-117 -17 -171 -62t-54 -124z" />
<glyph unicode="&#xab;" d="M193 463v194l323 258v-188l-213 -168l213 -166v-188zM612 463v194l328 258v-188l-215 -168l215 -166v-188z" />
<glyph unicode="&#xad;" horiz-adv-x="681" d="M80 471v199h512v-199h-512z" />
<glyph unicode="&#xae;" horiz-adv-x="1509" d="M20 737q0 156 61.5 294t163 232.5t235 149.5t276.5 55q98 0 199 -27t197.5 -86t171.5 -142.5t121 -207t46 -268.5q0 -167 -63.5 -308.5t-167.5 -233.5t-235 -143.5t-269 -51.5q-99 0 -199.5 26.5t-197.5 85.5t-172 143t-121 209t-46 273zM127 737q0 -91 25.5 -181 t78.5 -171.5t126.5 -144t177 -99.5t221.5 -37q84 0 170 24t168.5 75t146 123.5t102.5 179t39 231.5q0 84 -23.5 170t-74.5 169t-122.5 147t-176.5 103.5t-229 39.5q-168 0 -312.5 -82.5t-230.5 -228t-86 -318.5zM455 334v809h293q82 0 141 -11t105.5 -37t69.5 -72.5 t23 -113.5q0 -84 -47.5 -132.5t-148.5 -67.5q36 -6 66 -18.5t58 -35.5t44 -62t16 -91v-62q0 -58 3 -75.5t12 -30.5h-144q-7 17 -10 49v59q-2 55 -10 88.5t-30.5 62.5t-66.5 41.5t-114 12.5h-109v-313h-151zM606 756h123q108 0 158.5 29.5t50.5 111.5q0 74 -50 107.5 t-169 33.5h-113v-282z" />
<glyph unicode="&#xaf;" horiz-adv-x="681" d="M-98 1284v125h647v-125h-647z" />
<glyph unicode="&#xb0;" horiz-adv-x="819" d="M109 1128q0 129 88 218.5t217 89.5q136 0 220.5 -92.5t84.5 -213.5q0 -119 -83.5 -212t-221.5 -93q-125 0 -215 88t-90 215zM225 1130q0 -67 49.5 -127.5t139.5 -60.5q69 0 128.5 47t59.5 141q0 29 -10.5 60t-31 61t-59 49t-87.5 19q-76 0 -132.5 -55.5t-56.5 -133.5z " />
<glyph unicode="&#xb4;" horiz-adv-x="681" d="M86 1217l182 288h238l-275 -288h-145z" />
<glyph unicode="&#xb6;" horiz-adv-x="1105" d="M-18 991q0 93 28.5 175.5t86 151.5t156.5 109.5t228 40.5h586v-122h-125v-1711h-156v1711h-227v-1711h-151v887q-107 1 -191 42.5t-134 109.5t-75.5 149t-25.5 168z" />
<glyph unicode="&#xb7;" horiz-adv-x="569" d="M145 702q0 52 34 94t100 42q54 0 94.5 -38t40.5 -98q0 -45 -34 -88t-101 -43q-51 0 -92.5 34.5t-41.5 96.5z" />
<glyph unicode="&#xb8;" horiz-adv-x="681" d="M-8 -418l35 80q90 -31 137 -31q46 0 81.5 21.5t35.5 66.5q0 25 -24 50.5t-75 25.5q-40 0 -80 -16l-49 53l142 168h98l-92 -129q30 10 73 10q27 0 52.5 -6.5t52.5 -21.5t43 -48t16 -79q0 -77 -60 -133t-188 -56q-86 0 -198 45z" />
<glyph unicode="&#xbb;" d="M193 205v188l210 166l-210 168v188l325 -258v-194zM614 205v188l209 166l-209 168v188l326 -258v-194z" />
<glyph unicode="&#xbf;" horiz-adv-x="1251" d="M178 -6q0 94 33 154t143 167l105 103q51 51 70.5 111t19.5 165h192q-1 -78 -6.5 -125.5t-24 -99t-54 -97t-95.5 -102.5l-80 -75q-1 -1 -9.5 -9t-11.5 -11.5t-12 -13.5t-13.5 -16t-12.5 -18t-12.5 -21.5t-10.5 -23t-9 -26.5t-5 -29.5t-2 -32.5q0 -111 62 -173.5t184 -62.5 q134 0 196 76.5t68 233.5h194q-2 -217 -123 -348.5t-337 -131.5q-195 0 -322 110.5t-127 295.5zM532 856v221h213v-221h-213z" />
<glyph unicode="&#xc0;" horiz-adv-x="1382" d="M33 0l551 1468h241l531 -1468h-236l-139 422h-575l-152 -422h-221zM418 1878h237l183 -289h-146zM465 596h448l-219 639z" />
<glyph unicode="&#xc1;" horiz-adv-x="1382" d="M33 0l551 1468h241l531 -1468h-236l-139 422h-575l-152 -422h-221zM465 596h448l-219 639zM555 1589l182 289h238l-275 -289h-145z" />
<glyph unicode="&#xc2;" horiz-adv-x="1382" d="M33 0l551 1468h241l531 -1468h-236l-139 422h-575l-152 -422h-221zM389 1589l209 289h197l209 -289h-173l-135 189l-135 -189h-172zM465 596h448l-219 639z" />
<glyph unicode="&#xc3;" horiz-adv-x="1382" d="M33 0l551 1468h241l531 -1468h-236l-139 422h-575l-152 -422h-221zM342 1608q29 223 217 223q78 0 180 -47q3 -1 19.5 -8t25.5 -10.5t25.5 -7t32.5 -3.5q47 0 68.5 22.5t29.5 69.5h109q-14 -98 -64.5 -162.5t-148.5 -64.5q-46 0 -158 41q-7 3 -27 10t-27.5 9.5t-23 7.5 t-25 7t-21.5 3.5t-22 1.5q-70 0 -88 -92h-102zM465 596h448l-219 639z" />
<glyph unicode="&#xc4;" horiz-adv-x="1382" d="M33 0l551 1468h241l531 -1468h-236l-139 422h-575l-152 -422h-221zM428 1612v213h197v-213h-197zM465 596h448l-219 639zM768 1612v213h197v-213h-197z" />
<glyph unicode="&#xc5;" horiz-adv-x="1382" d="M33 0l551 1468h241l531 -1468h-236l-139 422h-575l-152 -422h-221zM465 596h448l-219 639zM483 1794q0 31 9.5 63.5t31.5 67t66 56.5t104 22q76 0 142.5 -55t66.5 -154q0 -76 -55 -143.5t-154 -67.5q-80 0 -145.5 55t-65.5 156zM569 1794q0 -45 31 -86t94 -41 q53 0 89 37.5t36 89.5q0 44 -32 83.5t-93 39.5q-55 0 -90 -37t-35 -86z" />
<glyph unicode="&#xc6;" horiz-adv-x="2048" d="M16 0l588 1468h1327v-186h-790v-430h725v-178h-725v-488h809v-186h-1020v418h-529l-155 -418h-230zM473 598h457v690h-191z" />
<glyph unicode="&#xc7;" horiz-adv-x="1478" d="M90 745q0 348 185 555t497 207q253 0 420.5 -132.5t189.5 -352.5h-208q-11 45 -26 81.5t-46 79t-72 71t-107 48t-149 19.5q-225 0 -345 -156.5t-120 -447.5q0 -262 120 -414.5t343 -152.5q167 0 268 95.5t144 289.5h211q-16 -144 -76.5 -257t-148 -180.5t-188.5 -102 t-208 -34.5l-63 -90q30 10 73 10q69 0 116.5 -39t47.5 -116q0 -81 -64 -135t-184 -54q-96 0 -198 45l35 80q87 -31 137 -31q18 0 35.5 3.5t36.5 12t30.5 27t11.5 45.5q0 31 -25.5 53.5t-70.5 22.5q-40 0 -82 -16l-35 41l101 141q-50 0 -102.5 11.5t-111 38.5t-111 67.5 t-101 104t-83.5 142t-56 186.5t-21 234z" />
<glyph unicode="&#xc8;" horiz-adv-x="1366" d="M172 0v1468h1073v-190h-862v-426h797v-182h-797v-484h881v-186h-1092zM451 1878h237l182 -289h-145z" />
<glyph unicode="&#xc9;" horiz-adv-x="1366" d="M172 0v1468h1073v-190h-862v-426h797v-182h-797v-484h881v-186h-1092zM586 1589l182 289h238l-275 -289h-145z" />
<glyph unicode="&#xca;" horiz-adv-x="1366" d="M172 0v1468h1073v-190h-862v-426h797v-182h-797v-484h881v-186h-1092zM422 1589l209 289h196l209 -289h-172l-135 189l-135 -189h-172z" />
<glyph unicode="&#xcb;" horiz-adv-x="1366" d="M172 0v1468h1073v-190h-862v-426h797v-182h-797v-484h881v-186h-1092zM459 1612v213h196v-213h-196zM799 1612v213h196v-213h-196z" />
<glyph unicode="&#xcc;" horiz-adv-x="1079" d="M176 0v1468h217v-1468h-217zM311 1878h238l182 -289h-145z" />
<glyph unicode="&#xcd;" horiz-adv-x="1079" d="M176 0v1468h217v-1468h-217zM346 1589l182 289h238l-274 -289h-146z" />
<glyph unicode="&#xce;" horiz-adv-x="1079" d="M176 0v1468h217v-1468h-217zM188 1589l209 289h197l209 -289h-172l-135 189l-136 -189h-172z" />
<glyph unicode="&#xcf;" horiz-adv-x="1079" d="M176 0v1468h217v-1468h-217zM254 1612v213h197v-213h-197zM594 1612v213h197v-213h-197z" />
<glyph unicode="&#xd1;" horiz-adv-x="1478" d="M156 0v1468h247l719 -1167v1167h205v-1468h-235l-734 1169v-1169h-202zM383 1608q29 223 217 223q78 0 180 -47q3 -1 19.5 -8t25.5 -10.5t25.5 -7t32.5 -3.5q47 0 68.5 22.5t29.5 69.5h109q-14 -98 -64.5 -162.5t-148.5 -64.5q-46 0 -158 41q-7 3 -27 10t-27.5 9.5 t-23 7.5t-25 7t-21.5 3.5t-22 1.5q-70 0 -88 -92h-102z" />
<glyph unicode="&#xd2;" horiz-adv-x="1593" d="M82 729q0 185 54.5 334.5t150.5 246.5t225.5 149t280.5 52q155 0 283 -43.5t226.5 -132.5t153.5 -236t55 -341q0 -238 -84.5 -418t-248.5 -281.5t-387 -101.5q-157 0 -286.5 50.5t-224 146.5t-146.5 243t-52 332zM303 719q0 -278 133 -425t375 -147q221 0 352 157 t131 452q0 136 -38.5 245t-105.5 178t-155.5 105.5t-191.5 36.5q-227 0 -363.5 -158.5t-136.5 -443.5zM528 1917h238l182 -289h-145z" />
<glyph unicode="&#xd3;" horiz-adv-x="1593" d="M82 729q0 185 54.5 334.5t150.5 246.5t225.5 149t280.5 52q155 0 283 -43.5t226.5 -132.5t153.5 -236t55 -341q0 -238 -84.5 -418t-248.5 -281.5t-387 -101.5q-157 0 -286.5 50.5t-224 146.5t-146.5 243t-52 332zM303 719q0 -278 133 -425t375 -147q221 0 352 157 t131 452q0 136 -38.5 245t-105.5 178t-155.5 105.5t-191.5 36.5q-227 0 -363.5 -158.5t-136.5 -443.5zM647 1628l182 289h238l-274 -289h-146z" />
<glyph unicode="&#xd4;" horiz-adv-x="1593" d="M82 729q0 185 54.5 334.5t150.5 246.5t225.5 149t280.5 52q155 0 283 -43.5t226.5 -132.5t153.5 -236t55 -341q0 -238 -84.5 -418t-248.5 -281.5t-387 -101.5q-157 0 -286.5 50.5t-224 146.5t-146.5 243t-52 332zM303 719q0 -278 133 -425t375 -147q221 0 352 157 t131 452q0 136 -38.5 245t-105.5 178t-155.5 105.5t-191.5 36.5q-227 0 -363.5 -158.5t-136.5 -443.5zM500 1628l209 289h196l209 -289h-172l-135 189l-135 -189h-172z" />
<glyph unicode="&#xd5;" horiz-adv-x="1593" d="M82 729q0 185 54.5 334.5t150.5 246.5t225.5 149t280.5 52q155 0 283 -43.5t226.5 -132.5t153.5 -236t55 -341q0 -238 -84.5 -418t-248.5 -281.5t-387 -101.5q-157 0 -286.5 50.5t-224 146.5t-146.5 243t-52 332zM303 719q0 -278 133 -425t375 -147q221 0 352 157 t131 452q0 136 -38.5 245t-105.5 178t-155.5 105.5t-191.5 36.5q-227 0 -363.5 -158.5t-136.5 -443.5zM453 1647q29 223 217 223q78 0 180 -47q4 -1 19.5 -8t24.5 -10.5t25.5 -7t32.5 -3.5q47 0 69 22.5t30 69.5h108q-14 -98 -64.5 -162.5t-148.5 -64.5q-46 0 -158 41 q-9 3 -27 9.5t-26.5 9.5t-23.5 7.5t-24.5 7t-21.5 4t-22 1.5q-70 0 -88 -92h-102z" />
<glyph unicode="&#xd6;" horiz-adv-x="1593" d="M82 729q0 185 54.5 334.5t150.5 246.5t225.5 149t280.5 52q155 0 283 -43.5t226.5 -132.5t153.5 -236t55 -341q0 -238 -84.5 -418t-248.5 -281.5t-387 -101.5q-157 0 -286.5 50.5t-224 146.5t-146.5 243t-52 332zM303 719q0 -278 133 -425t375 -147q221 0 352 157 t131 452q0 136 -38.5 245t-105.5 178t-155.5 105.5t-191.5 36.5q-227 0 -363.5 -158.5t-136.5 -443.5zM537 1651v213h196v-213h-196zM877 1651v213h196v-213h-196z" />
<glyph unicode="&#xd8;" horiz-adv-x="1593" d="M74 18l166 183q-158 201 -158 528q0 185 54.5 334.5t150.5 246.5t225.5 149t280.5 52q313 0 499 -168l152 164l59 -63l-149 -164q157 -194 157 -522q0 -238 -84.5 -418t-248.5 -281.5t-387 -101.5q-299 0 -484 170q0 1 -40.5 -43.5t-80.5 -89.5l-41 -45zM303 719 q0 -222 84 -359l758 824q-128 137 -342 137q-227 0 -363.5 -158.5t-136.5 -443.5zM446 281q134 -134 365 -134q221 0 352 157t131 452q0 211 -92 356z" />
<glyph unicode="&#xd9;" horiz-adv-x="1478" d="M168 600v868h219v-907q0 -208 90.5 -311t255.5 -103q187 0 282 97.5t95 316.5v907h219v-868q0 -333 -148 -486t-433 -153q-283 0 -431.5 154.5t-148.5 484.5zM481 1878h238l182 -289h-145z" />
<glyph unicode="&#xda;" horiz-adv-x="1478" d="M168 600v868h219v-907q0 -208 90.5 -311t255.5 -103q187 0 282 97.5t95 316.5v907h219v-868q0 -333 -148 -486t-433 -153q-283 0 -431.5 154.5t-148.5 484.5zM616 1589l183 289h237l-274 -289h-146z" />
<glyph unicode="&#xdb;" horiz-adv-x="1478" d="M168 600v868h219v-907q0 -208 90.5 -311t255.5 -103q187 0 282 97.5t95 316.5v907h219v-868q0 -333 -148 -486t-433 -153q-283 0 -431.5 154.5t-148.5 484.5zM453 1589l209 289h196l209 -289h-172l-135 189l-135 -189h-172z" />
<glyph unicode="&#xdc;" horiz-adv-x="1478" d="M168 600v868h219v-907q0 -208 90.5 -311t255.5 -103q187 0 282 97.5t95 316.5v907h219v-868q0 -333 -148 -486t-433 -153q-283 0 -431.5 154.5t-148.5 484.5zM489 1612v213h197v-213h-197zM829 1612v213h197v-213h-197z" />
<glyph unicode="&#xdf;" horiz-adv-x="1251" d="M190 -426v1452q0 465 418 465q66 0 125.5 -10.5t117 -37t99 -67.5t67 -106t25.5 -148q0 -215 -163 -299q101 -28 169 -120t68 -250q0 -63 -12.5 -126t-45 -128.5t-80.5 -115t-126 -81t-176 -31.5q-84 0 -129 11v165q30 -6 88 -6q40 0 76.5 8t74.5 29t66 53.5t45.5 87.5 t17.5 125q0 122 -66.5 199t-211.5 80q-41 0 -78 -6v166q16 -4 45 -4q66 1 115.5 20t77 51.5t40.5 70t13 79.5q0 106 -62 165.5t-174 59.5q-56 0 -95 -12.5t-71 -45t-47.5 -94t-15.5 -153.5v-1446h-195z" />
<glyph unicode="&#xe0;" horiz-adv-x="1155" d="M57 512q0 169 56 301t161.5 206.5t243.5 74.5q105 0 181 -39.5t143 -126.5v145h180v-1073h-178v150q-67 -98 -148.5 -143.5t-195.5 -45.5q-79 0 -156 35t-142 100.5t-105 174t-40 241.5zM262 524q0 -196 81 -294.5t216 -98.5q123 0 202 102t79 302q0 184 -76 286.5 t-207 102.5q-135 0 -215 -105.5t-80 -294.5zM289 1505h237l183 -288h-146z" />
<glyph unicode="&#xe1;" horiz-adv-x="1155" d="M57 512q0 169 56 301t161.5 206.5t243.5 74.5q105 0 181 -39.5t143 -126.5v145h180v-1073h-178v150q-67 -98 -148.5 -143.5t-195.5 -45.5q-79 0 -156 35t-142 100.5t-105 174t-40 241.5zM262 524q0 -196 81 -294.5t216 -98.5q123 0 202 102t79 302q0 184 -76 286.5 t-207 102.5q-135 0 -215 -105.5t-80 -294.5zM426 1217l182 288h238l-275 -288h-145z" />
<glyph unicode="&#xe2;" horiz-adv-x="1155" d="M57 512q0 169 56 301t161.5 206.5t243.5 74.5q105 0 181 -39.5t143 -126.5v145h180v-1073h-178v150q-67 -98 -148.5 -143.5t-195.5 -45.5q-79 0 -156 35t-142 100.5t-105 174t-40 241.5zM260 1217l209 288h197l208 -288h-172l-135 188l-135 -188h-172zM262 524 q0 -196 81 -294.5t216 -98.5q123 0 202 102t79 302q0 184 -76 286.5t-207 102.5q-135 0 -215 -105.5t-80 -294.5z" />
<glyph unicode="&#xe3;" horiz-adv-x="1155" d="M57 512q0 169 56 301t161.5 206.5t243.5 74.5q105 0 181 -39.5t143 -126.5v145h180v-1073h-178v150q-67 -98 -148.5 -143.5t-195.5 -45.5q-79 0 -156 35t-142 100.5t-105 174t-40 241.5zM213 1235q29 223 217 223q78 0 180 -47q3 -1 19.5 -8t25.5 -10.5t25.5 -7 t32.5 -3.5q47 0 68.5 22.5t29.5 70.5h109q-14 -99 -64.5 -163.5t-148.5 -64.5q-46 0 -158 41q-7 3 -27 10t-27.5 9.5t-23 7.5t-25 7t-21.5 3.5t-22 1.5q-70 0 -88 -92h-102zM262 524q0 -196 81 -294.5t216 -98.5q123 0 202 102t79 302q0 184 -76 286.5t-207 102.5 q-135 0 -215 -105.5t-80 -294.5z" />
<glyph unicode="&#xe4;" horiz-adv-x="1155" d="M57 512q0 169 56 301t161.5 206.5t243.5 74.5q105 0 181 -39.5t143 -126.5v145h180v-1073h-178v150q-67 -98 -148.5 -143.5t-195.5 -45.5q-79 0 -156 35t-142 100.5t-105 174t-40 241.5zM262 524q0 -196 81 -294.5t216 -98.5q123 0 202 102t79 302q0 184 -76 286.5 t-207 102.5q-135 0 -215 -105.5t-80 -294.5zM299 1239v213h197v-213h-197zM639 1239v213h197v-213h-197z" />
<glyph unicode="&#xe5;" horiz-adv-x="1155" d="M57 512q0 169 56 301t161.5 206.5t243.5 74.5q105 0 181 -39.5t143 -126.5v145h180v-1073h-178v150q-67 -98 -148.5 -143.5t-195.5 -45.5q-79 0 -156 35t-142 100.5t-105 174t-40 241.5zM262 524q0 -196 81 -294.5t216 -98.5q123 0 202 102t79 302q0 184 -76 286.5 t-207 102.5q-135 0 -215 -105.5t-80 -294.5zM356 1421q0 31 9.5 63.5t31.5 67t66 56.5t104 22q76 0 142.5 -55t66.5 -154q0 -76 -55 -143.5t-154 -67.5q-80 0 -145.5 55t-65.5 156zM442 1421q0 -45 31 -86t94 -41q53 0 89 37.5t36 89.5q0 44 -32 83.5t-93 39.5 q-55 0 -90 -37t-35 -86z" />
<glyph unicode="&#xe6;" horiz-adv-x="1820" d="M72 276q0 63 14.5 114t49 98.5t102.5 80t165 45.5l269 37q78 8 108 25v92q0 166 -229 166q-118 0 -182.5 -49.5t-65.5 -145.5h-188q3 78 23 137t67 112t136.5 82t219.5 30q105 2 198.5 -34.5t151.5 -121.5q126 156 342 156q249 0 367.5 -153.5t116.5 -469.5h-781 q5 -163 79 -255.5t208 -92.5q25 0 40.5 0.5t43 4.5t47 11.5t44.5 22.5t43 36.5t36 54.5t29 75h196q-5 -38 -19.5 -80t-50.5 -96t-87 -95.5t-136 -70.5t-190 -29q-122 0 -234.5 61t-156.5 162q-27 -38 -51.5 -66.5t-62 -59.5t-79 -51t-99 -33t-124.5 -13q-160 0 -260 81 t-100 232zM268 289q0 -82 61.5 -125t143.5 -43q34 0 72 8.5t80 30.5t75 53.5t54.5 82.5t21.5 114v114q-32 -10 -131 -26l-145 -25q-59 -11 -96 -22t-71 -31t-49.5 -52t-15.5 -79zM958 627h572q-1 46 -9.5 87.5t-29 82t-51.5 70t-79.5 47.5t-109.5 18q-53 0 -101 -16.5 t-90.5 -50.5t-69.5 -95t-32 -143z" />
<glyph unicode="&#xe7;" horiz-adv-x="1040" d="M61 508q0 170 55 303t167.5 213t267.5 80q62 0 112 -7t108.5 -31.5t100.5 -66t75 -115.5t44 -175h-192q-32 223 -248 223q-77 0 -133.5 -33.5t-88.5 -94t-46.5 -134t-14.5 -162.5q0 -56 7.5 -107t27 -101t49.5 -86t78.5 -58.5t110.5 -22.5q208 0 258 248h192 q-27 -196 -144 -304t-292 -110l-70 -96q38 10 76 10q74 0 119 -42.5t45 -112.5q0 -80 -64.5 -134.5t-181.5 -54.5q-85 0 -200 45l36 80q82 -31 136 -31q52 0 83 23.5t31 64.5q0 35 -28 55.5t-68 20.5t-80 -16l-39 41l109 147q-73 0 -142.5 35t-127.5 100t-93 170.5 t-35 235.5z" />
<glyph unicode="&#xe8;" d="M68 516q0 258 137.5 421t369.5 163q228 0 357.5 -160t122.5 -465h-781q12 -346 293 -346q112 0 185 51t96 154h192q-23 -178 -149 -275.5t-309 -97.5q-106 0 -197 34t-163 100t-113 174t-41 247zM281 625h573q-24 305 -287 305q-50 0 -98 -17.5t-89.5 -53t-68 -96 t-30.5 -138.5zM293 1505h237l183 -288h-146z" />
<glyph unicode="&#xe9;" d="M68 516q0 258 137.5 421t369.5 163q228 0 357.5 -160t122.5 -465h-781q12 -346 293 -346q112 0 185 51t96 154h192q-23 -178 -149 -275.5t-309 -97.5q-106 0 -197 34t-163 100t-113 174t-41 247zM281 625h573q-24 305 -287 305q-50 0 -98 -17.5t-89.5 -53t-68 -96 t-30.5 -138.5zM428 1217l182 288h238l-275 -288h-145z" />
<glyph unicode="&#xea;" d="M68 516q0 258 137.5 421t369.5 163q228 0 357.5 -160t122.5 -465h-781q12 -346 293 -346q112 0 185 51t96 154h192q-23 -178 -149 -275.5t-309 -97.5q-106 0 -197 34t-163 100t-113 174t-41 247zM264 1217l209 288h197l209 -288h-172l-136 188l-135 -188h-172zM281 625 h573q-24 305 -287 305q-50 0 -98 -17.5t-89.5 -53t-68 -96t-30.5 -138.5z" />
<glyph unicode="&#xeb;" d="M68 516q0 258 137.5 421t369.5 163q228 0 357.5 -160t122.5 -465h-781q12 -346 293 -346q112 0 185 51t96 154h192q-23 -178 -149 -275.5t-309 -97.5q-106 0 -197 34t-163 100t-113 174t-41 247zM281 625h573q-24 305 -287 305q-50 0 -98 -17.5t-89.5 -53t-68 -96 t-30.5 -138.5zM301 1239v213h197v-213h-197zM641 1239v213h197v-213h-197z" />
<glyph unicode="&#xec;" horiz-adv-x="569" d="M-20 1505h237l182 -288h-145zM180 0v1071h201v-1071h-201z" />
<glyph unicode="&#xed;" horiz-adv-x="569" d="M164 1217l182 288h238l-275 -288h-145zM180 0v1071h201v-1071h-201z" />
<glyph unicode="&#xee;" horiz-adv-x="569" d="M-25 1217l209 288h197l209 -288h-172l-135 188l-136 -188h-172zM180 0v1071h201v-1071h-201z" />
<glyph unicode="&#xef;" horiz-adv-x="569" d="M16 1239v213h197v-213h-197zM180 0v1071h201v-1071h-201zM356 1239v213h197v-213h-197z" />
<glyph unicode="&#xf1;" horiz-adv-x="1155" d="M131 0v1073h186v-151q135 176 349 176q175 0 265.5 -96t90.5 -310v-692h-199v674q0 124 -50.5 188t-149.5 64q-123 0 -210 -79.5t-87 -219.5v-627h-195zM213 1235q29 223 217 223q78 0 180 -47q3 -1 19.5 -8t25.5 -10.5t25.5 -7t32.5 -3.5q47 0 68.5 22.5t29.5 70.5h109 q-14 -99 -64.5 -163.5t-148.5 -64.5q-46 0 -158 41q-7 3 -27 10t-27.5 9.5t-23 7.5t-25 7t-21.5 3.5t-22 1.5q-70 0 -88 -92h-102z" />
<glyph unicode="&#xf2;" horiz-adv-x="1155" d="M59 516q0 125 33.5 231.5t96.5 187t161.5 126t220.5 45.5q101 0 189.5 -33.5t159.5 -98.5t112 -173t41 -246q0 -97 -17 -182.5t-56.5 -162t-98.5 -131t-148 -86.5t-200 -32q-79 0 -150 19.5t-134.5 63t-109.5 107t-73 157t-27 208.5zM260 518q0 -205 84.5 -297t220.5 -92 q81 0 141 31.5t95.5 89.5t52 132.5t16.5 168.5q0 201 -80.5 293t-222.5 92q-139 0 -223 -102.5t-84 -315.5zM289 1505h237l183 -288h-146z" />
<glyph unicode="&#xf3;" horiz-adv-x="1155" d="M59 516q0 125 33.5 231.5t96.5 187t161.5 126t220.5 45.5q101 0 189.5 -33.5t159.5 -98.5t112 -173t41 -246q0 -97 -17 -182.5t-56.5 -162t-98.5 -131t-148 -86.5t-200 -32q-79 0 -150 19.5t-134.5 63t-109.5 107t-73 157t-27 208.5zM260 518q0 -205 84.5 -297t220.5 -92 q81 0 141 31.5t95.5 89.5t52 132.5t16.5 168.5q0 201 -80.5 293t-222.5 92q-139 0 -223 -102.5t-84 -315.5zM426 1217l182 288h238l-275 -288h-145z" />
<glyph unicode="&#xf4;" horiz-adv-x="1155" d="M59 516q0 125 33.5 231.5t96.5 187t161.5 126t220.5 45.5q101 0 189.5 -33.5t159.5 -98.5t112 -173t41 -246q0 -97 -17 -182.5t-56.5 -162t-98.5 -131t-148 -86.5t-200 -32q-79 0 -150 19.5t-134.5 63t-109.5 107t-73 157t-27 208.5zM260 518q0 -205 84.5 -297t220.5 -92 q81 0 141 31.5t95.5 89.5t52 132.5t16.5 168.5q0 201 -80.5 293t-222.5 92q-139 0 -223 -102.5t-84 -315.5zM260 1217l209 288h197l208 -288h-172l-135 188l-135 -188h-172z" />
<glyph unicode="&#xf5;" horiz-adv-x="1155" d="M59 516q0 125 33.5 231.5t96.5 187t161.5 126t220.5 45.5q101 0 189.5 -33.5t159.5 -98.5t112 -173t41 -246q0 -97 -17 -182.5t-56.5 -162t-98.5 -131t-148 -86.5t-200 -32q-79 0 -150 19.5t-134.5 63t-109.5 107t-73 157t-27 208.5zM215 1235q29 223 217 223 q78 0 180 -47q3 -1 19.5 -8t25.5 -10.5t25.5 -7t32.5 -3.5q47 0 68.5 22.5t29.5 70.5h109q-14 -99 -64.5 -163.5t-148.5 -64.5q-46 0 -158 41q-9 3 -27 9.5t-26.5 9.5t-23.5 7.5t-24.5 7t-21.5 4t-22 1.5q-71 0 -89 -92h-102zM260 518q0 -205 84.5 -297t220.5 -92 q81 0 141 31.5t95.5 89.5t52 132.5t16.5 168.5q0 201 -80.5 293t-222.5 92q-139 0 -223 -102.5t-84 -315.5z" />
<glyph unicode="&#xf6;" horiz-adv-x="1155" d="M59 516q0 125 33.5 231.5t96.5 187t161.5 126t220.5 45.5q101 0 189.5 -33.5t159.5 -98.5t112 -173t41 -246q0 -97 -17 -182.5t-56.5 -162t-98.5 -131t-148 -86.5t-200 -32q-79 0 -150 19.5t-134.5 63t-109.5 107t-73 157t-27 208.5zM260 518q0 -205 84.5 -297t220.5 -92 q81 0 141 31.5t95.5 89.5t52 132.5t16.5 168.5q0 201 -80.5 293t-222.5 92q-139 0 -223 -102.5t-84 -315.5zM299 1239v213h197v-213h-197zM639 1239v213h197v-213h-197z" />
<glyph unicode="&#xf8;" horiz-adv-x="1251" d="M86 4l129 135q-106 147 -106 385q0 79 16 157t53.5 155.5t93 136.5t142.5 96t194 37q44 0 70 -2.5t75.5 -13t102.5 -40t109 -77.5l127 143l55 -53l-129 -143q20 -31 30.5 -50t32 -68t32.5 -112t11 -137q0 -96 -21 -184t-64 -163t-103.5 -130t-145 -86t-184.5 -31 q-212 0 -336 121l-123 -129zM307 518q0 -69 8 -108t35 -119l490 549q-32 45 -94.5 70.5t-127.5 25.5q-57 0 -109 -21t-99 -66.5t-75 -130.5t-28 -200zM395 221q1 -1 14.5 -15.5t20.5 -21t27 -19.5t38.5 -19t49.5 -11.5t67 -5.5q138 0 223 103t85 309q0 127 -39 227z" />
<glyph unicode="&#xf9;" horiz-adv-x="1134" d="M129 377v696h197v-674q0 -122 67.5 -190t175.5 -68q102 0 173 70t71 188v674h193v-678q0 -199 -121.5 -311.5t-325.5 -112.5q-200 0 -315 105.5t-115 300.5zM291 1505h237l183 -288h-146z" />
<glyph unicode="&#xfa;" horiz-adv-x="1134" d="M129 377v696h197v-674q0 -122 67.5 -190t175.5 -68q102 0 173 70t71 188v674h193v-678q0 -199 -121.5 -311.5t-325.5 -112.5q-200 0 -315 105.5t-115 300.5zM428 1217l182 288h238l-275 -288h-145z" />
<glyph unicode="&#xfb;" horiz-adv-x="1134" d="M129 377v696h197v-674q0 -122 67.5 -190t175.5 -68q102 0 173 70t71 188v674h193v-678q0 -199 -121.5 -311.5t-325.5 -112.5q-200 0 -315 105.5t-115 300.5zM262 1217l209 288h197l209 -288h-172l-136 188l-135 -188h-172z" />
<glyph unicode="&#xfc;" horiz-adv-x="1134" d="M129 377v696h197v-674q0 -122 67.5 -190t175.5 -68q102 0 173 70t71 188v674h193v-678q0 -199 -121.5 -311.5t-325.5 -112.5q-200 0 -315 105.5t-115 300.5zM301 1239v213h197v-213h-197zM641 1239v213h197v-213h-197z" />
<glyph unicode="&#xff;" horiz-adv-x="1040" d="M20 1073h222l290 -721l269 721h213l-631 -1499h-197l242 543zM252 1239v213h197v-213h-197zM592 1239v213h196v-213h-196z" />
<glyph unicode="&#x152;" horiz-adv-x="2048" d="M74 723q0 70 7 139.5t26.5 148t49.5 147t79 133t112 110t152 73t196 27.5q241 0 367 -172v139h909v-186h-706v-432h669v-180h-669v-484h708v-186h-913v145q-112 -180 -402 -180q-178 0 -312.5 101.5t-203.5 272.5t-69 384zM289 715q0 -97 15 -181.5t48 -157.5 t82.5 -124.5t122 -81t162.5 -29.5q43 0 85 8.5t87.5 32t79.5 59.5t56 97t22 139v537q0 139 -94 226t-244 87q-66 0 -124.5 -17t-114 -61t-95.5 -111.5t-64 -175.5t-24 -247z" />
<glyph unicode="&#x153;" horiz-adv-x="1921" d="M59 516q0 125 33.5 231.5t96.5 187t161.5 126t220.5 45.5q127 0 234 -52t176 -155q66 96 167.5 148.5t229.5 52.5q228 0 357.5 -160t122.5 -465h-781q12 -346 293 -346q112 0 185 51t96 154h192q-23 -178 -149.5 -275.5t-309.5 -97.5q-130 0 -237 50.5t-176 150.5 q-136 -201 -418 -201q-79 0 -150 19.5t-134.5 63t-109.5 107t-73 157t-27 208.5zM260 518q0 -205 84.5 -297t220.5 -92q81 0 141 31.5t95.5 89.5t52 132.5t16.5 168.5q0 201 -80.5 293t-222.5 92q-139 0 -223 -102.5t-84 -315.5zM1083 625h574q-24 305 -287 305 q-50 0 -98 -17.5t-90 -53t-68.5 -96t-30.5 -138.5z" />
<glyph unicode="&#x178;" horiz-adv-x="1366" d="M41 1468h250l407 -694l404 694h250l-547 -882v-586h-215v586zM440 1612v213h197v-213h-197zM780 1612v213h197v-213h-197z" />
<glyph unicode="&#x2c6;" horiz-adv-x="681" d="M-82 1217l209 288h197l208 -288h-172l-135 188l-135 -188h-172z" />
<glyph unicode="&#x2dc;" horiz-adv-x="681" d="M-129 1235q29 223 217 223q78 0 180 -47q3 -1 19.5 -8t25.5 -10.5t25.5 -7t32.5 -3.5q47 0 68.5 22.5t29.5 70.5h109q-14 -99 -64.5 -163.5t-148.5 -64.5q-46 0 -158 41q-7 3 -27 10t-27.5 9.5t-23 7.5t-25 7t-21.5 3.5t-22 1.5q-70 0 -88 -92h-102z" />
<glyph unicode="&#x2000;" horiz-adv-x="1001" />
<glyph unicode="&#x2001;" horiz-adv-x="2003" />
<glyph unicode="&#x2002;" horiz-adv-x="1001" />
<glyph unicode="&#x2003;" horiz-adv-x="2003" />
<glyph unicode="&#x2004;" horiz-adv-x="667" />
<glyph unicode="&#x2005;" horiz-adv-x="500" />
<glyph unicode="&#x2006;" horiz-adv-x="333" />
<glyph unicode="&#x2007;" horiz-adv-x="333" />
<glyph unicode="&#x2008;" horiz-adv-x="250" />
<glyph unicode="&#x2009;" horiz-adv-x="400" />
<glyph unicode="&#x200a;" horiz-adv-x="111" />
<glyph unicode="&#x2010;" horiz-adv-x="681" d="M80 471v199h512v-199h-512z" />
<glyph unicode="&#x2011;" horiz-adv-x="681" d="M80 471v199h512v-199h-512z" />
<glyph unicode="&#x2012;" horiz-adv-x="681" d="M80 471v199h512v-199h-512z" />
<glyph unicode="&#x2013;" d="M-4 489v158h1147v-158h-1147z" />
<glyph unicode="&#x2014;" horiz-adv-x="2048" d="M242 489v158h1564v-158h-1564z" />
<glyph unicode="&#x2018;" horiz-adv-x="471" d="M131 956v203q0 137 52 220t173 104v-94q-114 -22 -114 -207h114v-226h-225z" />
<glyph unicode="&#x2019;" horiz-adv-x="471" d="M164 1245v223h225v-202q0 -134 -51 -218t-172 -106v96q54 9 84.5 62t30.5 145h-117z" />
<glyph unicode="&#x201a;" horiz-adv-x="471" d="M166 0v227h227v-207q0 -138 -51 -220.5t-174 -106.5v96q112 19 115 211h-117z" />
<glyph unicode="&#x201c;" horiz-adv-x="729" d="M84 956v203q0 136 51.5 219.5t173.5 104.5v-94q-55 -11 -85 -64.5t-29 -142.5h114v-226h-225zM442 956v203q0 286 224 324v-94q-55 -11 -85 -64t-30 -143h115v-226h-224z" />
<glyph unicode="&#x201d;" horiz-adv-x="729" d="M88 942v96q54 9 85 62.5t30 144.5h-115v223h225v-202q0 -284 -225 -324zM442 1245v223h226v-202q0 -284 -224 -324v96q115 22 115 207h-117z" />
<glyph unicode="&#x201e;" horiz-adv-x="729" d="M88 0v227h225v-207q0 -141 -53 -222.5t-172 -104.5v96q115 20 115 211h-115zM438 0v227h228v-207q0 -138 -51.5 -221.5t-174.5 -105.5v96q112 19 115 211h-117z" />
<glyph unicode="&#x2022;" horiz-adv-x="716" d="M289 733q0 38 11 74t35 70.5t69.5 55.5t105.5 21q39 0 76.5 -13t70.5 -38t53.5 -69t20.5 -101q0 -94 -63.5 -157.5t-157.5 -63.5q-88 0 -154.5 59t-66.5 162z" />
<glyph unicode="&#x2026;" horiz-adv-x="2048" d="M231 0v229h222v-229h-222zM913 0v229h222v-229h-222zM1595 0v229h222v-229h-222z" />
<glyph unicode="&#x202f;" horiz-adv-x="400" />
<glyph unicode="&#x2039;" horiz-adv-x="681" d="M178 463v194l326 258v-188l-215 -168l215 -166v-188z" />
<glyph unicode="&#x203a;" horiz-adv-x="681" d="M170 205v188l213 166l-213 168v188l326 -258v-194z" />
<glyph unicode="&#x205f;" horiz-adv-x="500" />
<glyph unicode="&#x2122;" horiz-adv-x="2048" d="M233 1339v129h621v-129h-233v-598h-156v598h-232zM971 741v727h221l178 -503l178 503h221v-727h-141v580l-196 -580h-123l-197 580v-580h-141z" />
<glyph unicode="&#x25fc;" horiz-adv-x="1075" d="M0 0v1075h1075v-1075h-1075z" />
<glyph unicode="&#xfb01;" horiz-adv-x="1056" d="M27 918v151h149v154q0 139 68 203.5t225 64.5q30 0 80 -4v-174q-20 2 -66 2q-65 0 -88.5 -27.5t-23.5 -109.5v-109h180v-151h-180v-918h-195v918h-149zM725 0v1069h195v-1069h-195zM725 1260v210h195v-210h-195z" />
<glyph unicode="&#xfb02;" horiz-adv-x="1056" d="M27 918v151h149v154q0 139 68 203.5t225 64.5q30 0 80 -4v-174q-20 2 -66 2q-65 0 -88.5 -27.5t-23.5 -109.5v-109h180v-151h-180v-918h-195v918h-149zM721 0v1468h194v-1468h-194z" />
</font>
</defs>
</svg>
