<svg xmlns="http://www.w3.org/2000/svg" width="600" height="157.356" viewBox="0 0 600 157.356"><g fill="#00f"><path d="M116.312 157.356l-14.801-45.036h-61.56l-16.619 45.036h-23.332l58.653-157.356h26.335l57.021 157.356h-25.697zm-45.125-132.295l-24.517 68.463h47.942l-23.425-68.463zM246.336 0c35.959 0 51.848 16.527 51.848 42.222 0 31.328-25.604 48.489-53.573 48.489h-7.444l63.923 66.646h-29.602l-62.198-66.647h-14.254v66.646h-22.246v-157.356h73.546zm-3.358 71.278c22.157 0 31.869-7.444 31.869-26.241 0-17.707-10.258-25.697-29.056-25.697h-50.209v51.938h47.396zM410.05 0c28.51 0 47.308 15.345 47.308 45.583 0 27.967-16.526 46.761-47.854 46.761h-46.852v65.013h-23.337v-157.357h70.735zm-6.904 73.004c21.704 0 31.42-9.17 31.42-27.421 0-17.707-9.716-26.243-31.42-26.243h-40.494v53.664h40.494zM574.308 157.356l-14.8-45.036h-61.656l-16.523 45.036h-23.336l58.657-157.356h26.33l57.02 157.356h-25.692zm-45.675-132.295l-24.517 68.463h48.487l-23.97-68.463z"/></g></svg>