<svg xmlns="http://www.w3.org/2000/svg" width="600" height="157.355" viewBox="0 0 600 157.355"><path fill="#fff" d="M546.639 93.738c0-22.942-2.699-30.23-9.178-37.787-6.207-6.748-15.385-10.257-26.451-10.257-17.812 0-28.879 8.098-34.547 18.084v-15.386h-18.353v105.265h18.353v-61.001c0-16.463 10.256-30.769 27.8-30.769 15.386 0 24.021 7.287 24.021 30.229v61.809h18.354v-60.187zm-199.462 7.556c0-25.101 12.415-40.215 31.31-40.215 18.894 0 31.31 14.844 31.31 40.215 0 25.103-12.955 39.945-31.31 39.945-18.353.001-31.31-14.574-31.31-39.945m-18.894.272c0 33.737 20.243 54.791 50.203 54.791s50.203-21.324 50.203-54.791c0-33.74-20.514-55.603-50.203-55.603s-50.203 21.863-50.203 55.603m-105.263-.272c0-25.101 12.416-40.215 31.309-40.215 18.894 0 31.31 14.844 31.31 40.215 0 25.103-12.956 39.945-31.31 39.945s-31.309-14.574-31.309-39.945m-18.624.272c0 33.737 20.243 54.791 50.203 54.791s50.203-21.324 50.203-54.791c0-33.74-20.513-55.603-50.203-55.603-29.689 0-50.203 21.863-50.203 55.603m-134.683-102.566h-17.814v154.926h19.434v-102.294c0-9.447-.54-19.164-.54-19.164h.27c.809 1.89 8.097 12.686 12.416 18.894l71.525 102.564h17.814v-154.926h-19.434v97.707c0 11.334.54 22.941.54 22.941h-.27c-.81-1.891-6.749-11.067-11.876-18.083l-72.065-102.565z"/></svg>