<?xml version="1.0" encoding="utf-8"?>
<!-- Generator: Adobe Illustrator 15.1.0, SVG Export Plug-In . SVG Version: 6.00 Build 0)  -->
<!DOCTYPE svg PUBLIC "-//W3C//DTD SVG 1.1//EN" "http://www.w3.org/Graphics/SVG/1.1/DTD/svg11.dtd">
<svg version="1.1" id="Layer_1" xmlns="http://www.w3.org/2000/svg" xmlns:xlink="http://www.w3.org/1999/xlink" x="0px" y="0px"
	 width="600px" height="157.356px" viewBox="0 0 600 157.356" enable-background="new 0 0 600 157.356" xml:space="preserve">
<g>
	<g>
		<path fill="#0000FF" d="M116.312,157.356l-14.801-45.036h-61.56l-16.619,45.036H0L58.653,0h26.335l57.021,157.356H116.312z
			 M71.187,25.061L46.67,93.524h47.942L71.187,25.061z"/>
		<path fill="#0000FF" d="M246.336,0c35.959,0,51.848,16.527,51.848,42.222c0,31.328-25.604,48.489-53.573,48.489h-7.444
			l63.923,66.646h-29.602L209.29,90.71h-14.254v66.646H172.79V0H246.336z M242.978,71.278c22.157,0,31.869-7.444,31.869-26.241
			c0-17.707-10.258-25.697-29.056-25.697h-50.209v51.938H242.978z"/>
		<path fill="#0000FF" d="M410.05,0c28.51,0,47.308,15.345,47.308,45.583c0,27.967-16.526,46.761-47.854,46.761h-46.852v65.013
			h-23.337V0H410.05z M403.146,73.004c21.704,0,31.42-9.17,31.42-27.421c0-17.707-9.716-26.243-31.42-26.243h-40.494v53.664H403.146
			z"/>
		<path fill="#0000FF" d="M574.308,157.356l-14.8-45.036h-61.656l-16.523,45.036h-23.336L516.65,0h26.33L600,157.356H574.308z
			 M528.633,25.061l-24.517,68.463h48.487L528.633,25.061z"/>
	</g>
</g>
</svg>
