<?xml version="1.0" encoding="utf-8"?>
<!-- Generator: Adobe Illustrator 15.1.0, SVG Export Plug-In . SVG Version: 6.00 Build 0)  -->
<!DOCTYPE svg PUBLIC "-//W3C//DTD SVG 1.1//EN" "http://www.w3.org/Graphics/SVG/1.1/DTD/svg11.dtd">
<svg version="1.1" id="Layer_1" xmlns="http://www.w3.org/2000/svg" xmlns:xlink="http://www.w3.org/1999/xlink" x="0px" y="0px"
	 width="600px" height="157.355px" viewBox="0 0 600 157.355" enable-background="new 0 0 600 157.355" xml:space="preserve">
<g>
	<path fill="#FFFFFF" d="M546.639,93.738c0-22.942-2.699-30.23-9.178-37.787c-6.207-6.748-15.385-10.257-26.451-10.257
		c-17.812,0-28.879,8.098-34.547,18.084V48.392H458.11v105.265h18.353V92.656c0-16.463,10.256-30.769,27.8-30.769
		c15.386,0,24.021,7.287,24.021,30.229v61.809h18.354V93.738z M347.177,101.294c0-25.101,12.415-40.215,31.31-40.215
		c18.894,0,31.31,14.844,31.31,40.215c0,25.103-12.955,39.945-31.31,39.945C360.134,141.24,347.177,126.665,347.177,101.294
		 M328.283,101.566c0,33.737,20.243,54.791,50.203,54.791s50.203-21.324,50.203-54.791c0-33.74-20.514-55.603-50.203-55.603
		S328.283,67.826,328.283,101.566 M223.02,101.294c0-25.101,12.416-40.215,31.309-40.215c18.894,0,31.31,14.844,31.31,40.215
		c0,25.103-12.956,39.945-31.31,39.945S223.02,126.665,223.02,101.294 M204.396,101.566c0,33.737,20.243,54.791,50.203,54.791
		s50.203-21.324,50.203-54.791c0-33.74-20.513-55.603-50.203-55.603C224.91,45.963,204.396,67.826,204.396,101.566 M69.713-1H51.899
		v154.926h19.434V51.632c0-9.447-0.54-19.164-0.54-19.164h0.27c0.809,1.89,8.097,12.686,12.416,18.894l71.525,102.564h17.814V-1
		h-19.434v97.707c0,11.334,0.54,22.941,0.54,22.941h-0.27c-0.81-1.891-6.749-11.067-11.876-18.083L69.713-1z"/>
</g>
</svg>
